<svg width="110" height="110" viewBox="0 0 110 110" fill="none" xmlns="http://www.w3.org/2000/svg">
<mask id="mask0_1_168" style="mask-type:luminance" maskUnits="userSpaceOnUse" x="0" y="0" width="110" height="110">
<path d="M110 0H0V110H110V0Z" fill="white"/>
</mask>
<g mask="url(#mask0_1_168)">
<path d="M47.0037 100.32C46.3752 99.6722 45.7938 98.9805 45.2637 98.25C45.5537 98.7 45.8337 99.14 46.1537 99.57C46.3703 99.8867 46.6624 100.144 47.0037 100.32Z" fill="#FDD46B"/>
<path d="M40.5735 72.4207V72.3107L40.6535 72.0107C40.5203 72.0948 40.3933 72.1884 40.2735 72.2907C40.0847 72.4611 39.8766 72.6087 39.6535 72.7307C39.3835 74.1807 39.1135 75.6307 38.9035 77.0807C38.8197 77.4809 38.8256 77.8947 38.9207 78.2923C39.0158 78.69 39.1977 79.0617 39.4535 79.3807C39.4043 78.9722 39.4043 78.5592 39.4535 78.1507C39.6514 76.2106 40.0263 74.2926 40.5735 72.4207Z" fill="#FDD46B"/>
<path d="M42.5437 90.1507C42.7267 89.9564 42.924 89.7759 43.1337 89.6107C43.4237 89.3807 43.7337 89.1507 44.0737 88.9107L44.3437 88.7107C44.2637 88.0907 44.1737 87.4807 44.0837 86.8807C43.8049 85.1918 43.6147 83.4895 43.5137 81.7807C43.1341 81.529 42.7098 81.3525 42.2637 81.2607C43.104 82.412 43.5842 83.7866 43.6437 85.2107C43.8737 87.0407 43.9037 88.6507 42.5737 90.1307L42.5437 90.1507Z" fill="#FDD46B"/>
<path d="M57.2637 103.431C57.4926 103.758 57.6494 104.129 57.7237 104.521C57.7283 104.501 57.7283 104.481 57.7237 104.461C57.8737 104.001 57.8337 103.731 57.2637 103.431Z" fill="#FDD46B"/>
<path d="M94.5934 67.7206C94.7856 67.3666 94.8929 66.9727 94.9067 66.5701C94.9206 66.1674 94.8408 65.7671 94.6734 65.4006C93.772 63.1647 92.409 61.144 90.6734 59.4706C90.3378 59.1213 89.8965 58.8919 89.4177 58.8178C88.9389 58.7437 88.449 58.829 88.0234 59.0606C87.4701 59.3823 86.8992 59.6727 86.3134 59.9306C85.8778 60.1096 85.3891 60.1096 84.9534 59.9306C82.5434 58.2206 79.4334 57.1406 79.0834 53.5106C79.053 53.1075 78.9216 52.7186 78.7014 52.3796C78.4812 52.0406 78.1793 51.7624 77.8234 51.5706C75.4368 50.2584 72.8055 49.4517 70.0934 49.2006C69.7264 49.1722 69.3582 49.2376 69.0234 49.3906H69.1234C69.4227 49.4848 69.6786 49.6824 69.8454 49.9481C70.0121 50.2138 70.0788 50.5302 70.0334 50.8406V51.1206C69.9434 52.6006 69.8434 54.2906 68.1334 55.4306L67.7534 55.6906L67.4634 55.3306L67.2834 55.1306C67.092 54.9597 66.9532 54.7377 66.8834 54.4906C66.7664 53.871 66.7429 53.2373 66.8134 52.6106C66.3735 53.1384 65.7604 53.4928 65.0834 53.6106C64.3034 53.7906 63.5034 53.9206 62.7534 54.1706C61.932 54.5067 61.0359 54.6181 60.1572 54.4933C59.2785 54.3685 58.4488 54.0121 57.7534 53.4606C57.1507 53.0544 56.4403 52.8373 55.7134 52.8373C54.9865 52.8373 54.2762 53.0544 53.6734 53.4606L49.4634 55.6906C49.0834 55.8806 48.4634 55.3106 48.5834 54.8306C48.6325 54.3682 48.8091 53.9286 49.0934 53.5606C49.6071 53.1916 50.188 52.9266 50.8034 52.7806C51.519 52.6223 52.1566 52.2188 52.6058 51.6398C53.0551 51.0609 53.2877 50.343 53.2634 49.6106C53.3234 48.3306 53.3434 47.0606 53.4634 45.7906C53.5126 45.6506 53.596 45.5252 53.706 45.4256C53.8161 45.3261 53.9492 45.2556 54.0934 45.2206C54.3234 45.2206 54.7834 45.4506 54.8134 45.6306C54.9049 46.257 55.1045 46.8627 55.4034 47.4206C55.5034 46.9506 55.6234 46.4906 55.7534 46.0206L55.8734 45.5606C54.9832 44.8874 54.0325 44.2982 53.0334 43.8006C52.5534 43.5506 52.0334 43.2906 51.6034 43.0106C51.0692 43.2121 50.5749 43.5066 50.1434 43.8806C49.8834 44.0706 49.6134 44.2706 49.3334 44.4506C48.3334 45.1006 47.4234 45.3006 46.3334 44.2406C44.5676 42.4561 42.98 40.5035 41.5934 38.4106C41.3287 38.0078 41.2183 37.523 41.2826 37.0452C41.3469 36.5675 41.5816 36.1291 41.9434 35.8106C42.1634 35.5906 42.4134 35.3906 42.6534 35.1806C43.1013 34.8425 43.5015 34.4456 43.8434 34.0006L42.5534 29.7906C42.3679 29.6875 42.1739 29.6005 41.9734 29.5306C41.9734 29.5306 41.9034 29.7406 41.8534 29.8506C41.7434 29.8506 41.5934 29.7606 41.5434 29.6706C41.4934 29.5806 41.5434 29.5006 41.6334 29.4006C41.3048 29.3074 40.9709 29.2339 40.6334 29.1806C40.2669 29.1417 39.903 29.0816 39.5434 29.0006C38.0934 28.5906 37.1834 27.9306 37.4634 26.0006C37.6834 24.5306 38.0034 23.0506 38.3134 21.6206L38.6734 19.8906C38.6734 19.8106 38.7334 19.7206 38.7534 19.6406C38.5298 19.9774 38.3642 20.3492 38.2634 20.7406C37.9578 21.9774 37.7373 23.2337 37.6034 24.5006C37.5544 25.058 37.3957 25.6003 37.1366 26.0962C36.8775 26.5922 36.523 27.032 36.0934 27.3906C35.4734 27.8906 34.9534 28.5106 34.3834 29.0606C33.9615 29.4787 33.4463 29.7905 32.8802 29.9705C32.3142 30.1504 31.7135 30.1934 31.1276 30.0957C30.5417 29.9981 29.9874 29.7626 29.5103 29.4088C29.0332 29.055 28.647 28.5929 28.3834 28.0606C27.3834 25.9506 25.8634 25.3206 23.8334 25.2306C23.0378 25.1938 22.2404 25.2374 21.4534 25.3606C19.0834 25.7306 17.9434 26.1806 17.2834 27.4906C17.5012 27.3757 17.75 27.3336 17.9934 27.3706C18.2079 27.4023 18.4094 27.4929 18.5754 27.6324C18.7414 27.7719 18.8653 27.9548 18.9334 28.1606C19.0034 28.5106 19.1134 28.8606 19.2134 29.2106C19.4787 29.9513 19.6074 30.734 19.5934 31.5206C19.5839 31.7816 19.4915 32.0327 19.3297 32.2377C19.1679 32.4426 18.945 32.5908 18.6934 32.6606C18.5724 32.6913 18.4483 32.7081 18.3234 32.7106C18.1356 32.7092 17.95 32.6695 17.778 32.5938C17.6061 32.5182 17.4514 32.4082 17.3234 32.2706C16.8933 31.7762 16.6369 31.1545 16.5934 30.5006C16.5826 30.4162 16.5659 30.3327 16.5434 30.2506C16.5434 30.3406 16.5434 30.4306 16.5434 30.5306C16.4898 31.1644 16.2858 31.7762 15.9484 32.3153C15.6111 32.8545 15.15 33.3054 14.6034 33.6306C13.9668 34.1221 13.2115 34.4365 12.4142 34.5419C11.6169 34.6473 10.8059 34.5399 10.0634 34.2306C9.71461 34.0245 9.31338 33.9242 8.90858 33.942C8.50379 33.9597 8.11288 34.0948 7.78344 34.3306C5.7257 36.1058 4.06323 38.2929 2.90344 40.7506C2.83431 40.9147 2.80683 41.0934 2.82344 41.2706C2.93753 41.0595 3.11752 40.8915 3.33598 40.7922C3.55443 40.6929 3.79937 40.6678 4.03344 40.7206C5.16644 40.9537 6.25619 41.3619 7.26344 41.9306C7.63763 42.1355 7.93651 42.4547 8.11642 42.8415C8.29633 43.2283 8.34785 43.6625 8.26344 44.0806C7.93344 46.0806 7.56344 48.0806 7.19344 50.0806L7.04344 50.8706C6.98052 51.1111 6.85473 51.3304 6.67899 51.5062C6.50325 51.6819 6.28388 51.8077 6.04344 51.8706H5.90344H5.74344C5.29312 51.7462 4.90057 51.4681 4.63388 51.0845C4.3672 50.7009 4.24321 50.2361 4.28344 49.7706C4.28344 49.5606 4.28344 49.3506 4.28344 49.1406C4.01252 49.7261 3.62822 50.252 3.15276 50.688C2.6773 51.124 2.12012 51.4614 1.51344 51.6806C1.42666 51.7271 1.34603 51.7842 1.27344 51.8506C1.45652 51.872 1.63098 51.9403 1.7799 52.049C1.92883 52.1576 2.04716 52.3028 2.12344 52.4706C2.36344 53.2006 2.54344 53.9406 2.72344 54.6606L2.82344 55.0306C2.94344 55.5406 3.06344 56.0306 3.17344 56.5606C3.41222 57.8599 3.78764 59.1303 4.29344 60.3506C4.75356 60.3673 5.21242 60.2926 5.64344 60.1306C5.86344 60.0573 6.08344 59.9973 6.30344 59.9506C6.93596 59.7472 7.62021 59.7753 8.23391 60.0299C8.84762 60.2846 9.35077 60.7491 9.65344 61.3406C10.1694 62.1714 10.7584 62.9545 11.4134 63.6806L11.9334 64.3006C13.3434 66.0006 13.3834 66.5106 12.2634 68.4706C11.9734 68.9806 11.6834 69.4706 11.3734 70.0106L11.1234 70.4506L11.3234 70.6406C13.1134 72.3906 14.8134 74.0406 17.3234 74.7906L17.6734 74.2606C18.0334 73.7306 18.3534 73.2606 18.6734 72.7506C18.9853 72.1885 19.4916 71.7594 20.0974 71.544C20.7031 71.3286 21.3666 71.3416 21.9634 71.5806C23.4461 72.0784 24.9682 72.4498 26.5134 72.6906H26.7634C27.3514 72.7588 27.8943 73.0392 28.2901 73.4793C28.686 73.9193 28.9076 74.4888 28.9134 75.0806V75.6106C28.9028 76.1162 28.9912 76.619 29.1734 77.0906C30.4925 77.2755 31.8367 77.1418 33.0934 76.7006C34.2734 76.3506 35.5334 76.0206 36.8234 75.7006H36.9434C37.0457 75.4291 37.0966 75.1408 37.0934 74.8506C37.0934 74.3006 36.9934 73.7406 36.9534 73.1806C36.8572 73.1079 36.7699 73.024 36.6934 72.9306C36.5339 72.7342 36.4332 72.4965 36.4032 72.2452C36.3731 71.9939 36.4148 71.7392 36.5234 71.5106C36.6102 71.2893 36.7512 71.0933 36.9334 70.9406C37.2834 70.6606 37.6234 70.3706 37.9334 70.0806C39.1056 69.0088 40.4176 68.1005 41.8334 67.3806L41.9634 67.3206H42.1034C42.6626 67.4124 43.203 67.5948 43.7034 67.8606C44.2211 68.1529 44.7997 68.3207 45.3934 68.3506C45.7996 67.9069 46.1367 67.4046 46.3934 66.8606C46.6606 66.2856 46.9964 65.745 47.3934 65.2506C47.9634 64.5906 48.4934 63.8706 49.0034 63.1806L49.5734 62.4106C49.4415 62.0269 49.2144 61.6828 48.9134 61.4106C48.6641 61.155 48.4428 60.8734 48.2534 60.5706C48.1834 60.4406 48.0934 60.3106 48.0134 60.1906C47.868 59.9732 47.7377 59.746 47.6234 59.5106C47.5013 59.2631 47.4714 58.98 47.5393 58.7124C47.6071 58.4448 47.7681 58.2102 47.9934 58.0506C48.2063 57.8759 48.4731 57.7805 48.7484 57.7805C49.0238 57.7805 49.2906 57.8759 49.5034 58.0506C50.0077 58.4705 50.4853 58.9213 50.9334 59.4006C53.4334 62.0306 53.2834 62.6806 51.3834 64.8306L51.0734 65.1906C50.0079 66.4378 49.0948 67.8074 48.3534 69.2706C47.3534 71.1006 46.0534 71.7106 44.2634 71.1206C44.1602 71.1154 44.0567 71.1154 43.9534 71.1206H43.8634C43.0862 73.3426 42.5956 75.6546 42.4034 78.0006L42.8434 78.1306C43.4434 78.3106 44.0134 78.4706 44.5934 78.6606C45.1262 78.8023 45.5969 79.1168 45.9317 79.5547C46.2665 79.9927 46.4465 80.5294 46.4434 81.0806C46.4768 83.5221 46.7922 85.9516 47.3834 88.3206C47.4711 88.804 47.4242 89.3022 47.2478 89.7608C47.0714 90.2193 46.7724 90.6205 46.3834 90.9206C46.1652 91.1178 45.9273 91.292 45.6734 91.4406C45.3726 91.6071 45.1048 91.8275 44.8834 92.0906C45.8738 94.4296 47.3067 96.5552 49.1034 98.3506C49.7125 98.1354 50.2961 97.8537 50.8434 97.5106L51.5234 97.1306C51.7253 96.9718 51.9575 96.8561 52.2058 96.7905C52.4541 96.7249 52.7132 96.7109 52.9671 96.7493C53.2211 96.7877 53.4644 96.8778 53.6822 97.0139C53.9 97.15 54.0876 97.3292 54.2334 97.5406C55.1142 98.5103 56.1236 99.3548 57.2334 100.051C57.6555 100.287 58.0931 100.495 58.5434 100.671L59.1334 100.921C59.7313 101.131 60.2324 101.551 60.5433 102.103C60.8543 102.655 60.9538 103.301 60.8234 103.921C60.8234 104.091 60.7534 104.261 60.7134 104.441C60.6073 104.801 60.58 105.18 60.6334 105.551C61.6188 106.063 62.6587 106.462 63.7334 106.741L64.7334 107.041C65.2424 107.188 65.7652 107.282 66.2934 107.321C67.2023 107.364 68.0889 107.618 68.8834 108.061C69.11 107.784 69.2983 107.478 69.4434 107.151C69.651 106.666 69.9497 106.224 70.3234 105.851C70.1898 105.684 70.1035 105.483 70.0734 105.271C70.0595 105.072 70.0909 104.872 70.1654 104.687C70.2399 104.501 70.3555 104.335 70.5034 104.201C70.8266 103.933 71.2178 103.76 71.6334 103.701C72.9671 103.517 74.2755 103.181 75.5334 102.701L76.8534 102.291C77.466 102.016 78.1601 101.982 78.7963 102.197C79.4325 102.413 79.9638 102.86 80.2834 103.451L80.3834 103.571C80.4523 103.65 80.5158 103.734 80.5734 103.821C80.6366 103.926 80.7068 104.026 80.7834 104.121C81.0725 104.455 81.2599 104.864 81.3234 105.301C81.9794 105.167 82.606 104.916 83.1734 104.561C84.8134 103.561 86.4534 102.561 88.0434 101.561C88.619 101.255 89.0576 100.743 89.2709 100.127C89.4843 99.5108 89.4566 98.8369 89.1934 98.2406C88.4034 96.3606 89.0234 94.8206 90.1334 93.3406C90.3234 93.0806 90.5034 92.8206 90.6734 92.5506C91.0647 91.8843 91.5889 91.3056 92.2134 90.8506C92.0542 90.7002 91.9304 90.5164 91.8508 90.3123C91.7713 90.1083 91.738 89.8891 91.7534 89.6706C91.7649 89.4058 91.8616 89.1517 92.0292 88.9463C92.1968 88.7408 92.4263 88.5951 92.6834 88.5306C93.209 88.4147 93.7564 88.4468 94.2649 88.6233C94.7733 88.7998 95.2228 89.1139 95.5634 89.5306C95.9594 89.1165 96.2329 88.6008 96.3534 88.0406C96.8634 86.0406 97.3534 84.0406 97.8134 82.0406C98.0191 81.4198 97.9842 80.7445 97.7157 80.1482C97.4472 79.5519 96.9646 79.0781 96.3634 78.8206C95.4618 78.4804 94.6856 77.8729 94.1388 77.0794C93.5919 76.2859 93.3005 75.3443 93.3034 74.3806C93.2143 73.7454 93.0807 73.1172 92.9034 72.5006C92.7599 71.9589 92.7448 71.3911 92.8594 70.8425C92.974 70.2939 93.2151 69.7796 93.5634 69.3406C93.9498 68.8293 94.2943 68.2875 94.5934 67.7206ZM32.5934 56.8406C31.2709 58.1793 29.475 58.9443 27.5934 58.9706H27.5434C25.8464 58.8624 24.2502 58.1268 23.0655 56.907C21.8807 55.6871 21.1921 54.0701 21.1334 52.3706C21.1158 51.492 21.2749 50.6188 21.6013 49.8028C21.9277 48.9868 22.4147 48.2447 23.0334 47.6206C24.3188 46.2595 26.0921 45.4645 27.9634 45.4106C29.6729 45.3771 31.3263 46.0205 32.5634 47.2006C33.2131 47.8588 33.7247 48.6401 34.0682 49.4987C34.4116 50.3574 34.58 51.276 34.5634 52.2006C34.5444 53.9466 33.8363 55.6143 32.5934 56.8406ZM69.4634 92.1206C66.1869 92.0544 63.0684 90.6999 60.7834 88.3506C59.6687 87.2152 58.7975 85.8641 58.2231 84.3802C57.6488 82.8963 57.3835 81.3107 57.4434 79.7206C57.4845 77.3061 58.2315 74.9565 59.5921 72.9614C60.9527 70.9664 62.8675 69.4132 65.1004 68.4935C67.3333 67.5737 69.7865 67.3277 72.1575 67.7856C74.5286 68.2436 76.7137 69.3855 78.4434 71.0706C79.6201 72.2759 80.5432 73.7049 81.1581 75.2731C81.773 76.8412 82.0673 78.5168 82.0234 80.2006C81.9134 87.5706 75.4434 92.1206 69.4634 92.1206Z" fill="#FDD46B"/>
<path d="M83.2637 22.7405C82.7839 22.8102 82.2948 22.7092 81.8817 22.4552C81.4687 22.2012 81.158 21.8102 81.0037 21.3505C80.0737 19.3505 79.6637 17.3505 81.7737 15.7605C81.8919 15.6532 81.9931 15.5284 82.0737 15.3905C82.3859 15.0199 82.5725 14.5598 82.6067 14.0764C82.6408 13.5931 82.5207 13.1113 82.2637 12.7005C81.3843 10.9896 80.2288 9.43544 78.8437 8.1005C78.5585 7.8162 78.1966 7.62126 77.8023 7.53955C77.408 7.45785 76.9984 7.49293 76.6237 7.6405C76.0327 7.87935 75.461 8.16353 74.9137 8.4905C74.4961 8.72933 74.0186 8.84311 73.5382 8.81829C73.0577 8.79347 72.5945 8.6311 72.2037 8.3505C71.5237 7.9405 70.8137 7.5605 70.1237 7.1505C69.762 6.96616 69.4649 6.67608 69.272 6.31883C69.0791 5.96159 68.9994 5.55409 69.0437 5.1505C69.2437 3.1505 68.1037 2.2305 66.3837 1.7705C65.4666 1.48912 64.531 1.27193 63.5837 1.1205C62.5031 0.889744 61.3801 0.955393 60.3337 1.3105C60.6168 1.28965 60.8994 1.35595 61.1437 1.5005C61.3107 1.61227 61.4505 1.76018 61.5526 1.93328C61.6548 2.10638 61.7167 2.30024 61.7337 2.5005C61.9747 4.05944 61.7193 5.65469 61.0037 7.0605L60.8937 7.2505L60.6737 7.3005C60.5065 7.33956 60.3354 7.35968 60.1637 7.3605C59.8428 7.37894 59.5253 7.28721 59.2637 7.1005C59.1033 6.9689 58.9782 6.79944 58.8996 6.6074C58.8211 6.41537 58.7915 6.20679 58.8137 6.0005C58.8388 5.57754 58.8388 5.15346 58.8137 4.7305C58.8137 4.5405 58.8137 4.3405 58.8137 4.1405V4.1905C58.7951 4.34862 58.7547 4.50342 58.6937 4.6505C58.1558 5.7042 57.2254 6.50435 56.103 6.87847C54.9807 7.25259 53.7563 7.17072 52.6937 6.6505C51.7637 6.0705 51.0537 5.0405 49.7737 5.2805C48.6729 5.57588 47.6758 6.17137 46.8937 7.0005C46.4137 7.4205 45.9837 7.9005 45.5137 8.3405C45.1205 8.6403 44.7932 9.01789 44.5524 9.44973C44.3115 9.88157 44.1622 10.3584 44.1137 10.8505C44.1696 10.7831 44.2334 10.7227 44.3037 10.6705C44.675 10.4292 45.127 10.3453 45.5602 10.4372C45.9934 10.5291 46.3723 10.7893 46.6137 11.1605L46.9637 11.5605C47.277 11.9005 47.577 12.2505 47.8637 12.6105C48.2544 13.045 48.482 13.6017 48.5075 14.1854C48.5331 14.7691 48.355 15.3436 48.0037 15.8105C47.5537 16.5005 47.1337 17.2405 46.7237 17.9505C46.4337 18.4605 46.1337 18.9505 45.8337 19.4705C45.7318 19.6473 45.5865 19.7952 45.4115 19.9002C45.2365 20.0051 45.0377 20.0638 44.8337 20.0705C44.6972 20.0717 44.5617 20.048 44.4337 20.0005C44.2837 19.95 44.1453 19.87 44.0266 19.7654C43.9079 19.6607 43.8113 19.5334 43.7424 19.3909C43.6735 19.2485 43.6337 19.0937 43.6253 18.9356C43.617 18.7776 43.6402 18.6195 43.6937 18.4705C43.809 17.9134 44.0009 17.375 44.2637 16.8705L44.1937 16.9805C43.9595 17.5125 43.5692 17.9609 43.0746 18.2662C42.58 18.5716 42.0043 18.7195 41.4237 18.6905C41.5517 18.9182 41.6311 19.1699 41.6569 19.4298C41.6827 19.6897 41.6544 19.9521 41.5737 20.2005C41.187 21.9072 40.817 23.6205 40.4637 25.3405C40.4431 25.5099 40.4431 25.6811 40.4637 25.8505C40.4637 25.8505 40.4637 25.8505 40.4637 25.9205C40.9186 26.2146 41.4355 26.3994 41.9737 26.4605C42.1724 26.4899 42.3693 26.53 42.5637 26.5805C43.2526 26.6774 43.8926 26.9914 44.3908 27.477C44.8889 27.9626 45.2192 28.5943 45.3337 29.2805C45.6117 30.5407 45.9657 31.783 46.3937 33.0005L46.6137 33.6305C46.7648 34.0174 46.7959 34.4407 46.7032 34.8456C46.6105 35.2504 46.3981 35.618 46.0937 35.9005C45.6537 36.3205 45.1937 36.7205 44.6837 37.1605L44.3537 37.4605L47.9337 41.8805L48.3237 41.6405C48.8737 41.3205 49.3837 41.0105 49.8937 40.6405C50.2537 40.3689 50.6828 40.2043 51.1321 40.1653C51.5813 40.1264 52.0324 40.2149 52.4337 40.4205C52.8737 40.6605 53.3237 40.8905 53.7737 41.1105C55.0758 41.726 56.3265 42.445 57.5137 43.2605C58.8937 44.2605 59.0637 44.7305 58.6037 46.4205C58.5137 46.7305 58.4237 47.0405 58.3037 47.4205V47.5205C60.1018 48.0377 61.9796 48.2208 63.8437 48.0605C63.9122 47.7113 63.9224 47.3531 63.8737 47.0005C63.8346 46.6683 63.8346 46.3327 63.8737 46.0005C63.8875 45.5297 64.0584 45.077 64.3592 44.7146C64.66 44.3521 65.0735 44.1008 65.5337 44.0005L66.1237 43.8605C67.7698 43.5377 69.3735 43.0277 70.9037 42.3405C71.2923 42.136 71.7414 42.0781 72.1691 42.1772C72.5969 42.2763 72.9747 42.5259 73.2337 42.8805L73.5137 43.2305C73.9003 43.6736 74.2577 44.1412 74.5837 44.6305C74.8239 44.9774 74.9173 45.4051 74.8437 45.8205C75.1915 45.7092 75.5267 45.5618 75.8437 45.3805C77.2767 44.663 78.5596 43.6788 79.6237 42.4805C79.9544 42.1273 80.163 41.6772 80.2188 41.1966C80.2746 40.716 80.1747 40.2301 79.9337 39.8105C79.8006 39.5212 79.6327 39.2492 79.4337 39.0005C77.9737 37.4205 78.4337 35.8305 79.2737 34.1405C79.4248 33.7719 79.6515 33.4391 79.9391 33.1635C80.2268 32.8879 80.569 32.6757 80.9437 32.5405C80.9145 32.3047 80.9145 32.0663 80.9437 31.8305C80.9437 31.6805 80.9437 31.5005 80.9437 31.3005V30.7305L81.5137 30.8405C81.8137 30.9105 82.1237 30.9505 82.4137 30.9905C83.3271 31.0317 84.1989 31.3847 84.8837 31.9905C85.3839 31.3684 85.693 30.6147 85.7737 29.8205C85.9537 28.7105 86.2337 27.6205 86.3637 26.5105C86.7837 24.2005 86.6037 22.3405 83.2637 22.7405ZM63.1037 35.5805H62.9437C61.5894 35.5747 60.25 35.2973 59.0047 34.7649C57.7594 34.2324 56.6336 33.4556 55.6937 32.4805C54.8216 31.5647 54.1429 30.4827 53.6979 29.299C53.2529 28.1152 53.0508 26.854 53.1037 25.5905C53.3137 19.5905 57.4737 15.5105 63.2137 15.5905C65.9687 15.6587 68.5852 16.8124 70.4937 18.8005C71.3856 19.6878 72.0904 20.745 72.5662 21.9096C73.042 23.0743 73.2792 24.3225 73.2637 25.5805C73.214 28.2448 72.1227 30.7837 70.2235 32.6529C68.3243 34.5222 65.7685 35.5731 63.1037 35.5805Z" fill="#FDD46B"/>
<path d="M45.2635 14.25C45.2231 14.8178 45.0701 15.3719 44.8135 15.88C45.0435 15.46 45.2735 15.06 45.4535 14.65C45.4128 14.5071 45.3486 14.3719 45.2635 14.25Z" fill="#FDD46B"/>
<path d="M9.84367 66.7105L9.51367 66.3105C9.55297 66.7028 9.55297 67.0981 9.51367 67.4905C9.6489 67.2419 9.75943 66.9806 9.84367 66.7105Z" fill="#FDD46B"/>
<path d="M5.15377 44.3C5.08224 44.1784 4.98284 44.0756 4.86377 44C4.96318 44.1282 5.05024 44.2654 5.12377 44.41L5.15377 44.3Z" fill="#FDD46B"/>
<path d="M36.9735 73.2403C37.1283 73.3758 37.317 73.4669 37.5195 73.5039C37.722 73.5409 37.9307 73.5223 38.1235 73.4503C38.5635 73.2703 38.9935 73.0703 39.4235 72.8603L39.6735 72.7403C39.8966 72.6183 40.1047 72.4706 40.2935 72.3003C40.4133 72.1979 40.5403 72.1044 40.6735 72.0203L40.5935 72.3203V72.4303C40.0666 74.304 39.7118 76.222 39.5335 78.1603C39.4843 78.5688 39.4843 78.9817 39.5335 79.3903C39.6635 80.3203 40.2335 80.6703 41.5335 81.0703L42.1535 81.2403H42.3035C42.7565 81.3296 43.1879 81.5062 43.5735 81.7603C43.6744 83.469 43.8647 85.1713 44.1435 86.8603C44.2335 87.4603 44.3235 88.0703 44.4035 88.6903L44.1335 88.8903C43.7935 89.1303 43.4835 89.3602 43.1935 89.5902C42.9837 89.7554 42.7865 89.9359 42.6035 90.1303C41.8935 90.8603 41.7735 91.5303 42.2735 92.8503C42.6588 93.7876 43.1099 94.6965 43.6235 95.5703L43.6835 95.7003C44.1588 96.581 44.6864 97.4325 45.2635 98.2503C45.8 98.9814 46.3881 99.6731 47.0235 100.32C47.1835 100.47 47.3235 100.64 47.4835 100.79C48.6935 101.92 49.2335 101.89 50.5935 101.19C50.867 101.04 51.1309 100.873 51.3835 100.69C51.7248 100.427 52.1064 100.221 52.5135 100.08C53.8805 101.409 55.45 102.513 57.1635 103.35L57.2935 103.43C57.8535 103.73 57.8935 104.03 57.7635 104.43C57.7681 104.45 57.7681 104.47 57.7635 104.49C57.6925 104.729 57.639 104.973 57.6035 105.22C57.4035 107.05 57.7035 107.57 59.3935 108.32C61.4102 109.193 63.5208 109.83 65.6835 110.22C66.25 110.331 66.8262 110.385 67.4035 110.38H67.9535C68.1592 110.384 68.3633 110.344 68.5516 110.261C68.7399 110.178 68.9078 110.055 69.0435 109.9C69.1891 109.716 69.2939 109.503 69.3508 109.276C69.4078 109.048 69.4155 108.811 69.3735 108.58V108.37L69.2135 108.24C69.1235 108.18 69.0335 108.14 68.9535 108.08C68.1589 107.637 67.2724 107.383 66.3635 107.34C65.8352 107.301 65.3124 107.207 64.8035 107.06L63.8035 106.76C62.7287 106.481 61.6888 106.082 60.7035 105.57C60.65 105.199 60.6773 104.82 60.7835 104.46C60.7835 104.28 60.8635 104.11 60.8935 103.94C61.0238 103.32 60.9243 102.674 60.6133 102.122C60.3024 101.57 59.8013 101.15 59.2035 100.94L58.6135 100.69C58.1632 100.514 57.7255 100.306 57.3035 100.07C56.1936 99.3744 55.1842 98.5299 54.3035 97.5603C54.1576 97.3489 53.97 97.1696 53.7522 97.0335C53.5345 96.8974 53.2911 96.8073 53.0372 96.7689C52.7832 96.7305 52.5241 96.7445 52.2758 96.8101C52.0275 96.8757 51.7953 96.9915 51.5935 97.1503L50.9135 97.5303C50.3661 97.8733 49.7826 98.155 49.1735 98.3703C47.3768 96.5748 45.9438 94.4492 44.9535 92.1103C45.1748 91.8471 45.4426 91.6268 45.7435 91.4603C45.9973 91.3117 46.2352 91.1374 46.4535 90.9403C46.8424 90.6402 47.1414 90.2389 47.3178 89.7804C47.4942 89.3219 47.5411 88.8237 47.4535 88.3402C46.8622 85.9712 46.5468 83.5417 46.5135 81.1003C46.5165 80.549 46.3365 80.0123 46.0017 79.5744C45.6669 79.1364 45.1962 78.8219 44.6635 78.6803C44.0835 78.4903 43.5135 78.3303 42.9135 78.1503L42.4035 78.0003C42.616 75.6829 43.12 73.4015 43.9035 71.2103H43.9935C44.0967 71.205 44.2002 71.205 44.3035 71.2103C46.0935 71.8003 47.4335 71.2103 48.3935 69.3603C49.1349 67.8971 50.048 66.5274 51.1135 65.2803L51.4235 64.9203C53.3235 62.7703 53.4235 62.1203 50.9735 59.4903C50.5253 59.0109 50.0477 58.5601 49.5435 58.1403C49.3306 57.9656 49.0638 57.8701 48.7885 57.8701C48.5131 57.8701 48.2463 57.9656 48.0335 58.1403C47.8081 58.2998 47.6471 58.5344 47.5793 58.802C47.5115 59.0696 47.5413 59.3527 47.6635 59.6003C47.7777 59.8356 47.908 60.0628 48.0535 60.2803C48.1335 60.4003 48.2235 60.5303 48.2935 60.6603C48.4828 60.963 48.7041 61.2446 48.9535 61.5003C49.2545 61.7724 49.4815 62.1165 49.6135 62.5003L49.0435 63.2703C48.5335 63.9603 48.0435 64.6802 47.4335 65.3402C47.0364 65.8346 46.7006 66.3752 46.4335 66.9503C46.1767 67.4942 45.8396 67.9965 45.4335 68.4403C44.8397 68.4103 44.2611 68.2425 43.7435 67.9503C43.243 67.6844 42.7026 67.5021 42.1435 67.4103H42.0035L41.8735 67.4703C40.4576 68.1901 39.1457 69.0984 37.9735 70.1703C37.6335 70.4603 37.2935 70.7503 36.9735 71.0303C36.7912 71.1829 36.6503 71.3789 36.5635 71.6003C36.4561 71.8245 36.4133 72.0743 36.4398 72.3215C36.4662 72.5688 36.561 72.8038 36.7135 73.0003C36.7905 73.0901 36.8777 73.1706 36.9735 73.2403Z" fill="#1B1624"/>
<path d="M78.4038 71.0602C76.6741 69.3751 74.4889 68.2332 72.1179 67.7752C69.7468 67.3173 67.2936 67.5633 65.0608 68.483C62.8279 69.4028 60.9131 70.9559 59.5525 72.951C58.1918 74.946 57.4449 77.2957 57.4038 79.7102C57.3439 81.3003 57.6092 82.8858 58.1835 84.3698C58.7578 85.8537 59.6291 87.2048 60.7438 88.3402C63.0288 90.6895 66.1473 92.0439 69.4238 92.1102C75.4238 92.1102 81.8738 87.5602 81.9438 80.1802C81.9916 78.5008 81.703 76.8288 81.0951 75.2626C80.4871 73.6964 79.5721 72.2676 78.4038 71.0602ZM78.6738 79.6702C78.6925 80.9022 78.4641 82.1254 78.0021 83.2675C77.54 84.4097 76.8538 85.4477 75.9838 86.3202C75.2128 87.1357 74.2822 87.7838 73.25 88.2242C72.2178 88.6646 71.106 88.8879 69.9838 88.8802C64.4038 88.8202 60.3338 84.8802 60.3038 79.5002C60.3068 78.3317 60.5457 77.1758 61.0063 76.1018C61.4668 75.0279 62.1394 74.0579 62.9838 73.2502C64.7487 71.5 67.1282 70.5094 69.6138 70.4902H69.7938C72.1646 70.5946 74.4057 71.6013 76.0584 73.3042C77.7112 75.0071 78.6504 77.2774 78.6838 79.6502L78.6738 79.6702Z" fill="#1B1624"/>
<path d="M48.3236 41.59L47.9336 41.83L44.3536 37.41L44.6836 37.11C45.1936 36.67 45.6836 36.27 46.0936 35.85C46.398 35.5675 46.6104 35.1999 46.7031 34.7951C46.7958 34.3902 46.7647 33.9669 46.6136 33.58L46.3936 33C45.9641 31.7991 45.6068 30.5736 45.3236 29.33C45.2091 28.6438 44.8788 28.0121 44.3807 27.5265C43.8825 27.0409 43.2425 26.7269 42.5536 26.63C42.3592 26.5795 42.1623 26.5394 41.9636 26.51C41.4254 26.4489 40.9085 26.2641 40.4536 25.97C40.4536 25.97 40.4536 25.92 40.4536 25.9C40.433 25.7306 40.433 25.5594 40.4536 25.39C40.8069 23.67 41.177 21.9567 41.5636 20.25C41.6443 20.0016 41.6726 19.7392 41.6468 19.4793C41.621 19.2194 41.5416 18.9677 41.4136 18.74C41.2395 18.5094 40.993 18.3438 40.7136 18.27C39.5536 17.92 39.0436 19.02 38.8736 19.38C38.8249 19.4832 38.7848 19.5902 38.7536 19.7C38.7536 19.78 38.6936 19.87 38.6736 19.95L38.3136 21.68C38.0036 23.11 37.6836 24.59 37.4636 26.06C37.1836 27.95 38.0936 28.61 39.5436 29.06C39.9024 29.1544 40.2663 29.2279 40.6336 29.28C40.971 29.3333 41.305 29.4068 41.6336 29.5L41.9436 29.6C42.1441 29.6698 42.3381 29.7568 42.5236 29.86L43.8436 34C43.497 34.4534 43.0898 34.8571 42.6336 35.2C42.3936 35.41 42.1436 35.61 41.9236 35.83C41.5618 36.1485 41.3271 36.5869 41.2628 37.0646C41.1985 37.5423 41.3088 38.0272 41.5736 38.43C42.9602 40.5229 44.5477 42.4755 46.3136 44.26C47.3836 45.32 48.2536 45.12 49.3136 44.47C49.5936 44.29 49.8636 44.09 50.1236 43.9C50.5467 43.5173 51.0342 43.2126 51.5636 43C52.0336 43.28 52.5636 43.54 52.9936 43.79C53.9927 44.2876 54.9434 44.8768 55.8336 45.55L55.7136 46.01C55.5836 46.48 55.4636 46.94 55.3636 47.41C55.3483 47.4911 55.3283 47.5713 55.3036 47.65C55.2255 47.9041 55.2007 48.1717 55.2308 48.4358C55.2609 48.7 55.3452 48.9551 55.4785 49.1851C55.6119 49.4152 55.7913 49.6152 56.0055 49.7726C56.2198 49.93 56.4643 50.0415 56.7236 50.1C58.7005 50.6279 60.7375 50.8968 62.7836 50.9C63.2736 50.9 63.7836 50.9 64.2436 50.9C64.8435 50.886 65.4162 50.6468 65.8479 50.2299C66.2796 49.8131 66.5386 49.2491 66.5736 48.65C66.6217 48.319 66.6418 47.9844 66.6336 47.65C66.5971 47.2004 66.6515 46.7481 66.7936 46.32C67.7513 46.2583 68.6947 46.0562 69.5936 45.72C70.1419 45.5376 70.6993 45.3841 71.2636 45.26C71.3521 45.3486 71.4356 45.4421 71.5136 45.54C71.8336 45.89 72.1336 46.23 72.5136 46.54C72.6815 46.7351 72.9013 46.8785 73.1474 46.9536C73.3936 47.0288 73.656 47.0325 73.9042 46.9645C74.1523 46.8964 74.3761 46.7593 74.5495 46.5691C74.7229 46.3789 74.8387 46.1434 74.8836 45.89C74.9572 45.4746 74.8638 45.0469 74.6236 44.7C74.2976 44.2107 73.9402 43.7431 73.5536 43.3L73.2636 42.9C73.0046 42.5455 72.6268 42.2958 72.199 42.1967C71.7713 42.0976 71.3222 42.1555 70.9336 42.36C69.4034 43.0472 67.7997 43.5572 66.1536 43.88L65.5636 44.02C65.1029 44.1155 64.6874 44.3622 64.383 44.721C64.0786 45.0797 63.9028 45.5299 63.8836 46C63.8445 46.3322 63.8445 46.6678 63.8836 47C63.9126 47.335 63.889 47.6724 63.8136 48C61.9486 48.1745 60.0674 48.005 58.2636 47.5V47.4C58.3836 47.04 58.4736 46.73 58.5636 46.4C59.0236 44.71 58.8536 44.24 57.4736 43.24C56.2864 42.4245 55.0357 41.7055 53.7336 41.09C53.2836 40.87 52.8336 40.64 52.3936 40.4C51.9923 40.1944 51.5412 40.1059 51.092 40.1448C50.6428 40.1838 50.2136 40.3484 49.8536 40.62C49.3836 41 48.8736 41.27 48.3236 41.59Z" fill="#1B1624"/>
<path d="M19.6338 76.3501C19.7938 76.1501 19.9438 75.9402 20.0938 75.7202C20.3316 75.3034 20.677 74.958 21.0938 74.7202C21.5826 74.7225 22.0658 74.8245 22.5138 75.0201C22.8376 75.1495 23.1723 75.25 23.5138 75.3202L25.2638 75.6802L25.7738 75.7902L25.8638 76.2401C25.9638 76.8001 26.0638 77.3402 26.1738 77.8702C26.5638 79.7402 27.1738 80.3401 28.8038 80.3401H29.2638C31.8823 80.2361 34.4619 79.6708 36.8838 78.6701C37.2118 78.5392 37.5238 78.3715 37.8138 78.1701C38.089 78.0247 38.3023 77.7847 38.4144 77.4943C38.5265 77.204 38.5299 76.8828 38.4238 76.5901C38.3195 76.3047 38.1147 76.0671 37.8478 75.9217C37.581 75.7763 37.2702 75.733 36.9738 75.8001H36.8538C35.5638 76.1101 34.3038 76.4401 33.1238 76.8001C31.867 77.2413 30.5229 77.3751 29.2038 77.1902C29.0215 76.7185 28.9332 76.2157 28.9438 75.7101V75.1802C28.938 74.5883 28.7164 74.0188 28.3205 73.5788C27.9247 73.1387 27.3818 72.8584 26.7938 72.7902H26.5438C24.9985 72.5493 23.4764 72.178 21.9938 71.6802C21.397 71.4412 20.7335 71.4282 20.1278 71.6436C19.522 71.859 19.0157 72.2879 18.7038 72.8501C18.3838 73.3501 18.0638 73.8502 17.7038 74.3602L17.3538 74.8902C14.8738 74.1402 13.1738 72.4901 11.3538 70.7401L11.1538 70.5501L11.4038 70.1102C11.7138 69.5902 12.0038 69.1102 12.2938 68.5702C13.4138 66.5702 13.3738 66.1002 11.9638 64.4002L11.4438 63.7801C10.7888 63.0539 10.1998 62.2709 9.68381 61.4401C9.38918 60.8374 8.88791 60.3605 8.27124 60.0962C7.65456 59.832 6.9635 59.7979 6.32382 60.0002C6.10382 60.0536 5.88382 60.1136 5.66382 60.1802C5.2328 60.3421 4.77394 60.4168 4.31382 60.4001C3.80801 59.1798 3.4326 57.9095 3.19382 56.6102C3.08382 56.1002 2.96382 55.6101 2.84382 55.0801L2.74382 54.7101C2.56382 53.9901 2.38382 53.2502 2.14382 52.5202C2.06754 52.3524 1.9492 52.2072 1.80028 52.0985C1.65136 51.9899 1.4769 51.9215 1.29381 51.9001C1.21443 51.8861 1.1332 51.8861 1.05382 51.9001C0.829793 51.9203 0.61632 52.0046 0.438964 52.143C0.261609 52.2813 0.12789 52.4678 0.053817 52.6802C-0.017939 53.1274 -0.017939 53.583 0.053817 54.0301C0.333748 56.602 0.862899 59.1407 1.63382 61.6102C2.19382 63.3702 3.02382 63.8401 4.91382 63.4901C5.44382 63.3901 5.97382 63.2702 6.55382 63.1302L7.03382 63.0101C7.78056 64.1895 8.61279 65.3126 9.52381 66.3702L9.85382 66.7701C9.75358 67.0422 9.62628 67.3035 9.47381 67.5501C9.32048 67.8035 9.16048 68.0535 8.99382 68.3001C8.79217 68.5767 8.60524 68.8638 8.43381 69.1601C7.74381 70.3601 7.57382 71.2201 8.66382 72.3501C10.5665 74.4981 12.8916 76.2309 15.4938 77.4402C17.3338 78.1502 18.3438 77.9001 19.6338 76.3501Z" fill="#1B1624"/>
<path d="M63.2637 15.6203C57.5237 15.5103 53.3637 19.6203 53.1537 25.6203C53.1009 26.8838 53.3029 28.145 53.7479 29.3287C54.1929 30.5125 54.8717 31.5945 55.7437 32.5103C56.6836 33.4854 57.8095 34.2622 59.0547 34.7946C60.3 35.3271 61.6394 35.6044 62.9937 35.6103H63.1537C65.8116 35.5925 68.3573 34.5369 70.2478 32.6688C72.1384 30.8006 73.2242 28.2677 73.2737 25.6103C73.2905 24.3601 73.0576 23.1192 72.5889 21.9602C72.1201 20.8012 71.4248 19.7473 70.5437 18.8603C68.6403 16.8611 66.0231 15.6964 63.2637 15.6203ZM68.1037 30.4603C67.5489 31.112 66.8635 31.6401 66.0918 32.0104C65.3201 32.3808 64.4793 32.5851 63.6237 32.6103C59.0837 32.6103 55.8337 29.6103 55.7637 25.1703C55.7839 24.3283 55.971 23.4987 56.3144 22.7297C56.6577 21.9606 57.1504 21.2674 57.7637 20.6903C59.1207 19.2839 60.9707 18.4593 62.9237 18.3903H63.0037C64.8603 18.3903 66.6407 19.1278 67.9535 20.4405C69.2663 21.7533 70.0037 23.5338 70.0037 25.3903C69.9968 27.2621 69.3029 29.0662 68.0537 30.4603H68.1037Z" fill="#1B1624"/>
<path d="M27.5239 59.0004H27.5739C29.4555 58.9741 31.2513 58.2091 32.5739 56.8704C33.1983 56.2621 33.6965 55.5363 34.0397 54.7349C34.3829 53.9335 34.5645 53.0722 34.5739 52.2004C34.5905 51.2758 34.4221 50.3572 34.0786 49.4985C33.7352 48.6399 33.2236 47.8586 32.5739 47.2004C31.3368 46.0203 29.6833 45.3769 27.9739 45.4104C26.1025 45.4643 24.3292 46.2593 23.0439 47.6204C22.4252 48.2446 21.9382 48.9866 21.6118 49.8026C21.2854 50.6186 21.1263 51.4918 21.1439 52.3704C21.1946 54.0704 21.8758 55.6907 23.055 56.9161C24.2342 58.1416 25.8272 58.8845 27.5239 59.0004ZM27.8039 48.1604H27.8739C28.3613 48.166 28.8427 48.2678 29.2906 48.46C29.7385 48.6522 30.1441 48.931 30.4839 49.2804C30.8816 49.6726 31.1976 50.1395 31.4139 50.6544C31.6302 51.1693 31.7423 51.722 31.7439 52.2804C31.7597 52.7897 31.6699 53.2968 31.48 53.7696C31.2902 54.2425 31.0045 54.6709 30.641 55.0278C30.2774 55.3848 29.8439 55.6627 29.3676 55.8438C28.8914 56.025 28.3828 56.1055 27.8739 56.0804C26.7482 56.0755 25.67 55.6263 24.8739 54.8304C24.5141 54.4739 24.2303 54.0482 24.0395 53.579C23.8487 53.1098 23.755 52.6069 23.7639 52.1004C23.8239 49.5904 25.2639 48.1804 27.8039 48.1304V48.1604Z" fill="#1B1624"/>
<path d="M2.83368 41.2304C2.77994 41.3028 2.73933 41.384 2.71368 41.4704C2.66284 41.6554 2.6517 41.849 2.68099 42.0386C2.71029 42.2282 2.77937 42.4094 2.88368 42.5704C3.17703 42.9092 3.51319 43.2084 3.88368 43.4604C4.07608 43.5895 4.28033 43.7 4.49368 43.7904C4.63584 43.853 4.77292 43.9266 4.90368 44.0104C5.02161 44.0832 5.12091 44.1825 5.19368 44.3004V44.4204C5.19368 44.5804 5.12368 44.7504 5.09368 44.9104C4.97368 45.5304 4.84368 46.1704 4.66368 46.7904C4.42433 47.5554 4.28977 48.3493 4.26368 49.1504C4.26368 49.3604 4.26368 49.5704 4.26368 49.7804C4.22345 50.2459 4.34744 50.7107 4.61412 51.0943C4.88081 51.4779 5.27337 51.756 5.72368 51.8804H5.88368H6.02368C6.26412 51.8175 6.48349 51.6917 6.65923 51.516C6.83498 51.3402 6.96076 51.1209 7.02368 50.8804L7.17368 50.0904C7.54368 48.0904 7.91368 46.0904 8.24368 44.0904C8.32809 43.6723 8.27657 43.2381 8.09666 42.8513C7.91675 42.4645 7.61787 42.1453 7.24368 41.9404C6.23574 41.3568 5.14244 40.935 4.00368 40.6904C3.77665 40.646 3.54138 40.6742 3.33133 40.7712C3.12128 40.8681 2.94714 41.0288 2.83368 41.2304Z" fill="#1B1624"/>
<path d="M76.5936 105.47L77.9436 105.13C78.0401 105.327 78.1647 105.509 78.3136 105.67C79.0036 106.36 79.5836 106.82 80.1436 106.82H80.2636C80.4233 106.811 80.5783 106.763 80.7158 106.681C80.8533 106.599 80.9691 106.486 81.0536 106.35C81.2886 106.072 81.4069 105.714 81.3836 105.35C81.32 104.913 81.1326 104.504 80.8436 104.17C80.767 104.075 80.6968 103.975 80.6336 103.87C80.5759 103.783 80.5124 103.699 80.4436 103.62L80.3436 103.5C80.0239 102.909 79.4926 102.462 78.8564 102.246C78.2202 102.031 77.5262 102.065 76.9136 102.34L75.5936 102.75C74.3357 103.23 73.0273 103.565 71.6936 103.75C71.2779 103.809 70.8868 103.982 70.5636 104.25C70.4156 104.384 70.3001 104.55 70.2256 104.736C70.1511 104.921 70.1196 105.121 70.1336 105.32C70.1636 105.532 70.25 105.733 70.3836 105.9C70.4949 106.046 70.6343 106.169 70.7936 106.26C71.5729 106.572 72.4377 106.597 73.2336 106.33C74.2636 106.07 75.3536 105.79 76.5936 105.47Z" fill="#1B1624"/>
<path d="M44.7636 15.9103C44.5836 16.217 44.4136 16.5503 44.2536 16.9103C43.9864 17.4174 43.7912 17.9593 43.6736 18.5203C43.5809 18.8148 43.6062 19.1338 43.7443 19.41C43.8824 19.6861 44.1224 19.8978 44.4136 20.0003C44.5416 20.0478 44.6771 20.0715 44.8136 20.0703C45.0176 20.0636 45.2164 20.0049 45.3914 19.8999C45.5664 19.795 45.7117 19.6471 45.8136 19.4703C46.1136 18.9703 46.4136 18.4703 46.7036 17.9503C47.1136 17.2403 47.5336 16.5003 47.9836 15.8103C48.3349 15.3434 48.513 14.7689 48.4874 14.1852C48.4619 13.6015 48.2343 13.0447 47.8436 12.6103C47.557 12.2503 47.2569 11.9003 46.9436 11.5603L46.5936 11.1603C46.4732 10.9745 46.3171 10.8145 46.1344 10.6896C45.9516 10.5647 45.7459 10.4774 45.5291 10.4327C45.3122 10.3881 45.0887 10.387 44.8715 10.4295C44.6542 10.472 44.4476 10.5572 44.2636 10.6803C44.0149 10.8856 43.8223 11.1505 43.7036 11.4503C43.6687 11.7358 43.6914 12.0254 43.7704 12.3019C43.8495 12.5785 43.9832 12.8363 44.1636 13.0603C44.3355 13.3044 44.5297 13.532 44.7436 13.7403C44.9098 13.8953 45.0605 14.0661 45.1936 14.2503C45.2787 14.3722 45.3429 14.5073 45.3836 14.6503C45.2036 15.0603 44.9736 15.4603 44.7436 15.8803L44.7636 15.9103Z" fill="#1B1624"/>
<path d="M59.2639 7.10094C59.528 7.31806 59.8621 7.43178 60.2039 7.42094C60.3756 7.42012 60.5467 7.4 60.7139 7.36094L60.9339 7.31094L61.0439 7.12094C61.7595 5.71513 62.0148 4.11988 61.7739 2.56094C61.7568 2.36068 61.6949 2.16682 61.5928 1.99372C61.4907 1.82062 61.3509 1.6727 61.1839 1.56094C60.9396 1.41639 60.6569 1.35009 60.3739 1.37094C60.0948 1.38146 59.8186 1.43198 59.5539 1.52094L59.3439 1.59094L59.2539 1.79094C58.9322 2.54829 58.7885 3.36935 58.8339 4.19094C58.8339 4.39094 58.8339 4.59094 58.8339 4.78094C58.859 5.2039 58.859 5.62798 58.8339 6.05094C58.8176 6.24747 58.8481 6.44505 58.9229 6.62754C58.9976 6.81003 59.1145 6.97225 59.2639 7.10094Z" fill="#1B1624"/>
<path d="M69.1537 49.4299H69.0537C68.7156 49.3368 68.3545 49.38 68.0479 49.5501C67.7413 49.7203 67.5136 50.0038 67.4137 50.3399C67.1252 51.0863 66.9304 51.8656 66.8337 52.6599C66.7631 53.2865 66.7867 53.9202 66.9037 54.5399C66.9734 54.7869 67.1122 55.0089 67.3037 55.1799L67.4837 55.3799L67.7737 55.7399L68.1537 55.4799C69.8637 54.3399 69.9637 52.6499 70.0537 51.1699V50.8899C70.1021 50.5792 70.0381 50.2615 69.8731 49.9938C69.7081 49.7261 69.453 49.5262 69.1537 49.4299Z" fill="#1B1624"/>
<path d="M16.6436 30.4605C16.6871 31.1144 16.9434 31.736 17.3736 32.2305C17.5015 32.368 17.6562 32.478 17.8282 32.5537C18.0001 32.6293 18.1857 32.6691 18.3736 32.6705C18.4984 32.6679 18.6225 32.6512 18.7436 32.6205C18.9952 32.5506 19.218 32.4025 19.3798 32.1975C19.5416 31.9926 19.634 31.7414 19.6436 31.4805C19.6575 30.6938 19.5288 29.9112 19.2636 29.1705C19.1636 28.8205 19.0536 28.4705 18.9836 28.1205C18.9155 27.9146 18.7915 27.7318 18.6255 27.5923C18.4595 27.4528 18.2581 27.3621 18.0436 27.3305C17.8002 27.2934 17.5513 27.3355 17.3336 27.4505C17.065 27.5928 16.861 27.8325 16.7636 28.1205C16.6725 28.3989 16.599 28.6828 16.5436 28.9705L16.4136 29.5205L16.4736 29.6705C16.5425 29.844 16.5895 30.0254 16.6136 30.2105C16.6293 30.293 16.6393 30.3766 16.6436 30.4605Z" fill="#1B1624"/>
<path d="M85.0537 32.0002C84.3688 31.3943 83.4971 31.0414 82.5837 31.0002C82.2937 31.0002 81.9837 30.9202 81.6837 30.8502L81.1137 30.7402V31.3102C81.1137 31.5102 81.1137 31.6902 81.1137 31.8402C81.0845 32.076 81.0845 32.3144 81.1137 32.5502C81.1039 32.6566 81.1039 32.7637 81.1137 32.8702C81.2366 33.1391 81.4151 33.3788 81.6374 33.5736C81.8598 33.7684 82.121 33.9138 82.4037 34.0002C82.8289 34.1972 83.2863 34.3158 83.7537 34.3502C84.3837 34.3502 84.8337 33.9802 85.4737 33.1402L85.6637 32.8902L85.5137 32.6102C85.3924 32.3846 85.2372 32.1789 85.0537 32.0002Z" fill="#1B1624"/>
<path d="M95.8834 90.461C95.8863 90.2279 95.8313 89.9977 95.7234 89.7911C95.6802 89.7165 95.6299 89.6462 95.5734 89.5811C95.2328 89.1643 94.7833 88.8503 94.2749 88.6737C93.7664 88.4972 93.219 88.4651 92.6934 88.5811C92.4363 88.6455 92.2068 88.7913 92.0392 88.9967C91.8716 89.2021 91.7749 89.4562 91.7634 89.7211C91.748 89.9395 91.7813 90.1587 91.8608 90.3627C91.9404 90.5668 92.0642 90.7507 92.2234 90.9011C92.456 91.1292 92.7312 91.3093 93.0334 91.4311C93.4475 91.6266 93.896 91.7387 94.3534 91.7611C94.7927 91.7621 95.2193 91.614 95.5634 91.341C95.6603 91.2566 95.7357 91.1504 95.7834 91.031L95.9134 90.7911V90.6211C95.8953 90.5696 95.8851 90.5156 95.8834 90.461Z" fill="#1B1624"/>
</g>
</svg>
