<svg width="120" height="110" viewBox="0 0 120 110" fill="none" xmlns="http://www.w3.org/2000/svg">
<path d="M73.0546 48.4235C72.8415 47.1087 72.4406 45.8313 71.8643 44.6305C70.8568 42.5821 69.3959 40.7901 67.5925 39.3905C65.9535 38.104 64.1156 37.0936 62.1511 36.3991C60.2774 35.7966 58.324 35.4784 56.3559 35.4552C55.0845 35.4402 53.8162 35.5836 52.5803 35.8821C51.1621 36.1565 49.798 36.6593 48.5409 37.3708C47.8226 37.7872 47.1528 38.2904 46.4588 38.7242C45.5845 39.2624 44.7812 39.9083 44.0678 40.6467C43.5963 41.1537 43.1636 41.6954 42.7734 42.2673C41.7339 43.711 40.9735 45.3364 40.5316 47.0597C40.231 48.2401 39.9993 49.437 39.8376 50.6444C39.7152 51.4393 39.7001 52.2469 39.7925 53.0458C39.9105 53.9238 39.9035 54.8121 40.0528 55.6901C40.1373 56.3444 40.2648 56.9924 40.4345 57.63C40.963 59.2404 41.7091 60.771 42.652 62.1794C43.4448 63.4542 44.4785 64.5622 45.6953 65.4414C46.1499 65.7607 46.5768 66.1181 47.0314 66.4305C48.62 67.5534 50.377 68.4167 52.2367 68.988C52.6309 69.1205 53.0401 69.2033 53.4548 69.2344C54.2043 69.2587 54.947 69.3003 55.6931 69.3732C57.5213 69.5377 59.3639 69.3251 61.1066 68.7486C62.9441 68.1213 64.7202 67.3268 66.4126 66.3749C66.8264 66.1448 67.2031 65.8535 67.53 65.5109C67.877 65.1638 68.1477 64.8168 68.4531 64.4455C69.6636 63.073 70.7267 61.5773 71.6249 59.9828C72.2842 58.7886 72.7592 57.5017 73.0338 56.1655C73.313 54.8581 73.4296 53.5212 73.3808 52.1852C73.412 50.9231 73.3026 49.6614 73.0546 48.4235ZM66.4056 53.2158C65.5485 53.6635 64.7677 54.2569 63.8863 54.6456C63.2582 54.9371 62.6474 55.2667 62.0262 55.5756C61.4051 55.8844 60.8325 56.1482 60.2425 56.4501C58.8359 57.1696 57.4316 57.8925 56.0297 58.619C55.2176 59.0389 54.4125 59.4692 53.6005 59.8891C52.9753 60.1829 52.366 60.5096 51.7752 60.8677C51.6748 60.9312 51.5607 60.9697 51.4425 60.98C51.3242 60.9902 51.2052 60.972 51.0954 60.9268C50.9856 60.8816 50.8882 60.8107 50.8115 60.7201C50.7347 60.6295 50.6808 60.5219 50.6543 60.4062C50.5358 59.9191 50.4833 59.4184 50.4981 58.9174C50.4981 58.612 50.4981 58.3101 50.4981 58.0048C50.5398 56.929 50.3906 55.8567 50.4704 54.7774C50.5467 53.7572 50.5294 52.7265 50.5675 51.7028C50.5918 50.9567 50.6786 50.2072 50.6716 49.4611C50.6508 47.8266 50.8278 46.1956 50.8729 44.5646C50.852 44.3542 50.908 44.1435 51.0304 43.9712C51.1529 43.799 51.3337 43.6769 51.5392 43.6276C51.7576 43.5815 51.9853 43.6186 52.1777 43.7317C53.6734 44.516 55.2038 45.2413 56.6613 46.0915C57.7856 46.7508 58.9516 47.3303 60.0655 48.007C60.7249 48.4096 61.4328 48.7393 62.1164 49.1071C63.338 49.7734 64.5664 50.4744 65.7671 51.2239C66.1226 51.4395 66.426 51.731 66.6555 52.0776C66.7252 52.1649 66.7746 52.2666 66.8 52.3754C66.8253 52.4842 66.8261 52.5972 66.8021 52.7063C66.7782 52.8154 66.7302 52.9178 66.6616 53.006C66.593 53.0941 66.5055 53.1658 66.4056 53.2158Z" fill="#FDD46B"/>
<path d="M114.223 86.5415C113.223 85.9815 112.223 85.5414 111.223 85.0214C104.223 81.5914 104.713 82.3514 104.713 74.5014C104.713 58.2814 104.713 42.0614 104.713 25.8414C104.713 24.1614 104.713 22.4814 104.603 20.8414C104.57 19.7121 104.15 18.6284 103.412 17.7726C102.675 16.9167 101.665 16.3407 100.553 16.1414C99.1018 15.8086 97.6277 15.5847 96.1431 15.4714C94.6531 15.3514 93.1431 15.3914 91.6631 15.3914C67.8131 15.5014 43.9431 15.0314 20.1031 16.0614C19.1731 16.0614 18.2331 16.0614 17.3031 16.1914C14.6631 16.5114 13.2231 17.8914 13.0031 20.4914C12.8331 22.3414 12.8731 24.2114 12.8731 26.0814C12.8731 42.0814 12.8731 58.1147 12.8731 74.1814C12.8731 75.8514 12.8731 77.5314 12.8031 79.1814C12.8327 79.933 12.641 80.6768 12.2516 81.3203C11.8623 81.9639 11.2926 82.4788 10.6131 82.8014C8.79311 83.7414 6.94311 84.6115 5.13311 85.5815C3.79031 86.2225 2.50551 86.9787 1.29311 87.8414C0.831789 88.2265 0.4742 88.7209 0.252937 89.2796C0.0316746 89.8382 -0.0462211 90.4435 0.0263536 91.0399C0.0989284 91.6364 0.319665 92.2053 0.668436 92.6946C1.01721 93.184 1.48292 93.5782 2.02311 93.8414C2.86439 94.2284 3.76918 94.4588 4.69311 94.5214C6.36311 94.6414 8.04311 94.6115 9.69311 94.6115H63.4131C78.6998 94.6115 93.9898 94.6115 109.283 94.6115C110.96 94.6646 112.638 94.5237 114.283 94.1915C114.912 94.0114 115.484 93.6712 115.943 93.2043C116.402 92.7373 116.732 92.1596 116.901 91.5271C117.071 90.8947 117.073 90.2293 116.909 89.5956C116.744 88.9621 116.418 88.3817 115.963 87.9114C115.449 87.3763 114.864 86.9153 114.223 86.5415ZM59.9931 18.2714C60.3097 18.3057 60.6026 18.4549 60.8165 18.6909C61.0303 18.9268 61.1501 19.233 61.1531 19.5514C61.1327 19.9199 60.9797 20.2686 60.7225 20.5333C60.4652 20.7979 60.1209 20.9606 59.7531 20.9914C59.3862 20.9413 59.0494 20.7614 58.8036 20.4845C58.5578 20.2075 58.4193 19.8517 58.4131 19.4814C58.4266 19.2938 58.4798 19.1112 58.5691 18.9457C58.6583 18.7802 58.7817 18.6354 58.931 18.5211C59.0803 18.4067 59.2522 18.3254 59.4353 18.2823C59.6184 18.2393 59.8085 18.2356 59.9931 18.2714ZM15.5031 25.2714C15.5647 24.7097 15.8147 24.1855 16.2124 23.7842C16.6101 23.3829 17.132 23.1281 17.6931 23.0614C19.3631 22.9114 21.0431 22.8314 22.6931 22.8214C34.6331 22.8214 46.5731 22.8214 58.5131 22.8214C70.4431 22.8214 82.3831 22.8214 94.3231 22.8214C101.403 22.8214 101.523 22.9314 101.543 30.0114C101.603 44.5514 101.633 59.0981 101.633 73.6514C101.633 79.9014 101.363 80.1715 94.9131 80.1915C70.6664 80.2582 46.4198 80.3114 22.1731 80.3514C20.6832 80.3515 19.1944 80.2715 17.7131 80.1115C17.1537 80.0388 16.6348 79.7805 16.2396 79.3781C15.8443 78.9756 15.5956 78.452 15.5331 77.8914C15.3814 76.5936 15.3046 75.2881 15.3031 73.9814C15.3031 59.0614 15.3031 44.1414 15.3031 29.2214C15.2982 27.9054 15.365 26.5901 15.5031 25.2814V25.2714ZM115.503 90.2014C114.879 90.6178 114.129 90.8019 113.383 90.7215C110.033 90.7215 106.673 90.6515 103.323 90.6515L74.8231 90.7114H58.9031V90.9614C52.1931 90.9614 45.4831 90.9614 38.7831 90.9614C30.6764 90.9614 22.5698 90.9147 14.4631 90.8214C11.2931 90.8214 8.13311 90.6915 4.96311 90.5815C4.03651 90.5363 3.11424 90.4259 2.20311 90.2514C2.08244 90.1925 1.9777 90.1053 1.89766 89.9975C1.81762 89.8895 1.76462 89.764 1.74311 89.6314C1.74117 89.4954 1.76878 89.3606 1.82403 89.2363C1.87928 89.112 1.96085 89.0011 2.06311 88.9114C2.77371 88.4509 3.62135 88.2496 4.46311 88.3414C7.16311 88.2614 9.86644 88.2014 12.5731 88.1614C20.6731 88.0714 28.7831 87.9314 36.8831 87.9214C47.3131 87.9214 57.7431 88.0014 68.1731 88.0214C74.1731 88.0214 80.1031 88.0214 86.0631 88.0214C93.6131 88.0214 101.153 88.1214 108.703 88.1614C110.183 88.1614 111.703 88.0714 113.163 88.0115C113.909 87.9396 114.66 88.0636 115.343 88.3714C115.5 88.4625 115.632 88.59 115.729 88.7429C115.826 88.8957 115.884 89.0696 115.9 89.2499C115.916 89.4303 115.888 89.6118 115.819 89.7792C115.75 89.9464 115.641 90.0947 115.503 90.2114V90.2014Z" fill="#FDD46B"/>
<path d="M50.4978 58.9175C50.483 59.4185 50.5355 59.9193 50.654 60.4063C50.6796 60.5226 50.7329 60.631 50.8093 60.7225C50.8857 60.8139 50.9829 60.8856 51.0928 60.9315C51.2027 60.9774 51.3221 60.9963 51.4408 60.9864C51.5595 60.9765 51.6741 60.9382 51.7749 60.8748C52.3657 60.5167 52.975 60.19 53.6002 59.8961C54.4122 59.4763 55.2173 59.0459 56.0294 58.626C57.4313 57.8973 58.8356 57.172 60.2422 56.4502C60.8322 56.1483 61.4325 55.8707 62.0259 55.5757C62.6193 55.2808 63.2579 54.9372 63.886 54.6457C64.7674 54.2432 65.5482 53.6636 66.4053 53.216C66.5047 53.1659 66.5916 53.0943 66.6598 53.0064C66.728 52.9185 66.7758 52.8166 66.7998 52.7079C66.8237 52.5993 66.8231 52.4867 66.7981 52.3783C66.7731 52.2699 66.7243 52.1684 66.6552 52.0812C66.4261 51.7333 66.1227 51.4406 65.7668 51.2241C64.5731 50.4745 63.3377 49.7735 62.1057 49.1072C61.4117 48.7394 60.7176 48.4132 60.0548 48.0072C58.9409 47.3131 57.7749 46.7509 56.6505 46.0916C55.193 45.2414 53.6627 44.5161 52.167 43.7318C51.9746 43.6188 51.7469 43.5816 51.5285 43.6277C51.3197 43.6734 51.1349 43.7939 51.009 43.9666C50.883 44.1392 50.8246 44.352 50.8448 44.5647C50.7997 46.1957 50.6228 47.8267 50.6436 49.4612C50.6436 50.2073 50.5638 50.9568 50.5395 51.7029C50.5013 52.744 50.5186 53.7573 50.4423 54.7776C50.3625 55.8568 50.5117 56.9291 50.4701 58.0049C50.4978 58.3241 50.477 58.6122 50.4978 58.9175ZM52.0802 58.5081C52.108 56.8458 52.056 55.1871 52.1913 53.5248C52.2746 52.5046 52.2364 51.4774 52.2676 50.4502C52.3128 49.0135 52.3683 47.5768 52.4238 46.1402C52.4165 46.079 52.4274 46.0171 52.4552 45.9621C52.483 45.9072 52.5264 45.8617 52.58 45.8313C53.621 46.2547 54.5996 46.8724 55.6233 47.4033C56.6471 47.9343 57.6083 48.4999 58.6008 49.0552C59.5933 49.6104 60.6309 50.1865 61.6442 50.759C62.6575 51.3316 63.643 51.8001 64.7119 52.4942C60.447 54.6006 56.3139 56.6654 52.2642 58.8481C52.056 58.7926 52.0698 58.6365 52.0698 58.5081H52.0802Z" fill="#1B1624"/>
<path d="M115.343 88.3419C114.66 88.0341 113.909 87.91 113.163 87.9819C111.673 88.0419 110.163 88.1419 108.703 88.1319C101.153 88.1319 93.6133 88.0119 86.0633 87.9919C80.0633 87.9919 74.1333 87.9919 68.1733 87.9919C57.7433 87.9919 47.3133 87.8719 36.8833 87.8919C28.7833 87.8919 20.6733 88.0419 12.5733 88.1319C9.85993 88.1719 7.15659 88.2319 4.46326 88.3119C3.62151 88.2201 2.77386 88.4215 2.06326 88.8819C1.961 88.9716 1.87943 89.0825 1.82418 89.2068C1.76893 89.3311 1.74132 89.4659 1.74326 89.6019C1.76477 89.7345 1.81777 89.86 1.89781 89.9679C1.97785 90.0758 2.0826 90.1629 2.20326 90.2219C3.11439 90.3964 4.03666 90.5067 4.96326 90.5519C8.13326 90.6619 11.2933 90.7619 14.4633 90.7919C22.5633 90.8586 30.6699 90.9052 38.7833 90.9319C45.4833 90.9319 52.1933 90.9319 58.9033 90.9319V90.6819H74.8233L103.323 90.6219C106.673 90.6219 110.033 90.6219 113.383 90.6919C114.129 90.7724 114.879 90.5884 115.503 90.1719C115.64 90.055 115.746 89.9073 115.814 89.741C115.882 89.5747 115.909 89.3947 115.893 89.2158C115.878 89.0369 115.82 88.8644 115.724 88.7124C115.628 88.5604 115.498 88.4334 115.343 88.3419Z" fill="#1B1624"/>
<path d="M58.4434 19.4821C58.4495 19.8524 58.588 20.2082 58.8338 20.4852C59.0796 20.7622 59.4164 20.942 59.7834 20.9921C60.1458 20.9545 60.4829 20.7889 60.734 20.5249C60.9852 20.2609 61.1339 19.916 61.1534 19.5521C61.1495 19.229 61.0256 18.919 60.8055 18.6823C60.5855 18.4457 60.2853 18.2994 59.9634 18.2721C59.7832 18.2455 59.5994 18.2562 59.4235 18.3036C59.2476 18.3509 59.0833 18.4339 58.9408 18.5473C58.7983 18.6608 58.6806 18.8023 58.595 18.9631C58.5095 19.1239 58.4578 19.3005 58.4434 19.4821Z" fill="#1B1624"/>
</svg>
