<svg width="84" height="84" viewBox="0 0 84 84" fill="none" xmlns="http://www.w3.org/2000/svg">
<g clip-path="url(#clip0_1_24)">
<path d="M11.3423 21.3434C13.5357 19.8104 16.842 20.1044 18.8113 21.7307L16.5527 18.4478C14.735 15.8554 15.386 13.0507 17.9807 11.2308C20.5753 9.41775 27.9277 14.2921 27.9277 14.2921C26.0937 11.6741 26.4367 8.35608 29.0547 6.51975C31.6727 4.69042 35.2847 5.32275 37.1187 7.94542L61.432 42.2921L58.3333 72.3337L32.473 62.9024L9.91667 29.4587C8.06634 26.8244 8.70567 23.1914 11.3423 21.3434Z" fill="#FFAC33"/>
<path d="M6.28834 40.4509C6.28834 40.4509 3.647 36.6009 7.49934 33.9619C11.347 31.3229 13.986 35.1705 13.986 35.1705L26.2383 53.0392C26.6607 52.3345 27.1227 51.6392 27.6383 50.9532L10.633 26.1569C10.633 26.1569 7.994 22.3092 11.844 19.6702C15.6917 17.0312 18.3307 20.8789 18.3307 20.8789L34.3257 44.2052C34.9207 43.7199 35.5297 43.2322 36.1573 42.7539L17.6143 15.7082C17.6143 15.7082 14.9753 11.8605 18.8253 9.22152C22.673 6.58252 25.312 10.4302 25.312 10.4302L43.855 37.4712C44.5363 37.0535 45.2107 36.6919 45.8873 36.3092L28.5553 11.0345C28.5553 11.0345 25.9163 7.18685 29.764 4.54785C33.6117 1.90885 36.2507 5.75652 36.2507 5.75652L54.5767 32.4825L57.3627 36.5472C45.8173 44.4665 44.7183 59.3649 51.3147 68.9852C52.633 70.9102 54.558 69.5919 54.558 69.5919C46.641 58.0442 49.0583 45.0685 60.606 37.1515L57.2017 20.1135C57.2017 20.1135 55.93 15.6242 60.417 14.3502C64.9063 13.0785 66.1803 17.5679 66.1803 17.5679L70.112 29.2439C71.6707 33.8732 73.3297 38.4862 75.5253 42.8495C81.725 55.1695 78.022 70.4809 66.332 78.5005C53.5803 87.2435 36.148 83.9932 27.4027 71.2439L6.28834 40.4509Z" fill="#FFDC5D"/>
<path d="M28 74.764C18.6667 74.764 9.23533 65.3327 9.23533 55.9993C9.23533 54.709 8.29033 53.666 7 53.666C5.70966 53.666 4.56866 54.709 4.56866 55.9993C4.56866 69.9993 14 79.4307 28 79.4307C29.2903 79.4307 30.3333 78.2897 30.3333 76.9993C30.3333 75.709 29.2903 74.764 28 74.764Z" fill="#5DADEC"/>
<path d="M16.3333 79.3327C9.33333 79.3327 4.66667 74.666 4.66667 67.666C4.66667 66.3757 3.62367 65.3327 2.33333 65.3327C1.043 65.3327 0 66.3757 0 67.666C0 76.9994 7 83.9994 16.3333 83.9994C17.6237 83.9994 18.6667 82.9564 18.6667 81.666C18.6667 80.3757 17.6237 79.3327 16.3333 79.3327ZM56 4.66602C54.712 4.66602 53.6667 5.71135 53.6667 6.99935C53.6667 8.28735 54.712 9.33268 56 9.33268C65.3333 9.33268 74.6667 17.707 74.6667 27.9994C74.6667 29.2873 75.712 30.3327 77 30.3327C78.288 30.3327 79.3333 29.2873 79.3333 27.9994C79.3333 15.1333 70 4.66602 56 4.66602Z" fill="#5DADEC"/>
<path d="M67.6666 0.0976562C66.3786 0.0976562 65.3333 1.04499 65.3333 2.33299C65.3333 3.62099 66.3786 4.76432 67.6666 4.76432C74.6666 4.76432 79.2353 9.95599 79.2353 16.333C79.2353 17.621 80.3763 18.6663 81.6666 18.6663C82.957 18.6663 83.902 17.621 83.902 16.333C83.902 7.37999 77 0.0976562 67.6666 0.0976562Z" fill="#5DADEC"/>
</g>
<defs>
<clipPath id="clip0_1_24">
<rect width="84" height="84" fill="white"/>
</clipPath>
</defs>
</svg>
