<svg width="110" height="110" viewBox="0 0 110 110" fill="none" xmlns="http://www.w3.org/2000/svg">
<path d="M53.2582 79.4524C56.5256 77.0289 57.687 73.7538 57.2844 69.8515C56.8818 65.9493 54.8067 62.6896 52.0581 61.6211C52.2749 67.3352 52.7395 72.995 52.7859 78.6549C52.7772 78.8196 52.8174 78.9832 52.9015 79.1251C52.9855 79.267 53.1096 79.3808 53.2582 79.4524Z" fill="#5DCDF1"/>
<path d="M45.5546 59.0973C45.3301 62.8215 45.3688 66.4528 45.3998 70.0841C45.4307 73.7153 45.1985 77.3002 45.4927 80.9237C47.289 80.9779 48.9459 81.3341 50.6028 80.4824C50.5176 75.2329 49.6272 61.9001 49.2324 60.1193C48.0942 59.7399 46.9715 59.0741 45.5546 59.0973Z" fill="#5DCDF1"/>
<path d="M42.6818 46.7783C39.5847 48.9075 39.244 52.593 42.8134 54.5751C42.9877 51.977 42.9437 49.369 42.6818 46.7783Z" fill="#5DCDF1"/>
<path d="M49.0227 57.1457C49.2525 56.6638 49.3178 56.1198 49.2086 55.5972C49.046 52.4537 48.8524 49.3102 48.6588 46.1667C48.6759 45.9493 48.638 45.7312 48.5487 45.5323C48.4594 45.3334 48.3216 45.1602 48.1478 45.0285C47.2025 44.8606 46.2288 44.9708 45.345 45.346C45.2753 48.8998 45.345 52.4459 45.585 56.0385C46.6594 56.601 47.8221 56.9754 49.0227 57.1457Z" fill="#5DCDF1"/>
<path d="M9.80691 88.5267C14.3981 91.9229 19.6083 94.39 25.145 95.7892C30.3881 97.1428 35.7996 97.7296 41.2109 97.5313C46.3133 97.57 50.5021 97.5313 54.6831 96.757C59.686 95.9131 64.6188 94.6967 69.4405 93.118C76.1534 90.7952 81.0544 86.1497 85.3593 80.7918C90.2062 72.8556 91.1043 64.5942 87.3182 56.0154C84.7554 50.1775 80.3499 45.8494 75.5107 41.9316C71.0257 38.3982 66.0354 35.5586 60.7068 33.5076C60.0136 33.2449 59.3451 32.921 58.7093 32.5398C58.4084 32.3632 58.1453 32.129 57.935 31.8507C57.9154 32.1013 57.8013 32.335 57.6159 32.5046C57.4304 32.6742 57.1875 32.7671 56.9362 32.7644C56.2615 32.8558 55.5803 32.8894 54.8999 32.865C49.031 32.5863 43.1621 32.594 37.2854 32.7489C36.3099 32.7489 35.3266 33.0586 34.3433 32.7489C34.1729 32.6947 33.9716 32.7489 33.7935 32.6947C33.4849 32.6504 33.2022 32.4974 32.9963 32.2632C32.7905 32.029 32.6751 31.7289 32.6708 31.4171C32.7089 31.1063 32.8528 30.8181 33.0785 30.6009C33.3041 30.3838 33.5976 30.2509 33.9097 30.2248C34.8775 30.1164 35.8608 30.1009 37.0067 30.0312C36.4105 28.4827 35.8608 27.0348 35.3266 25.6024C35.1713 25.2022 35.047 24.7906 34.9549 24.3714C34.9602 24.2821 34.9868 24.1954 35.0327 24.1186C35.0785 24.0417 35.1421 23.9771 35.2182 23.93C35.3848 23.8641 35.5703 23.8641 35.7369 23.93C35.9064 23.9997 36.0591 24.1049 36.1846 24.2384C36.3101 24.372 36.4056 24.5308 36.4647 24.7043C36.7899 25.4786 37.1151 26.3148 37.3938 27.1277C37.6781 28.0634 38.0488 28.9706 38.501 29.8376C38.7427 29.9702 39.0177 30.0297 39.2925 30.0091C39.5674 29.9885 39.8303 29.8886 40.0496 29.7215C39.9974 28.515 39.7998 27.3191 39.4611 26.1599C39.2676 25.045 38.6327 23.9533 39.1979 22.8151C39.3005 22.7627 39.4136 22.7339 39.5288 22.7308C39.644 22.7276 39.7585 22.7503 39.8638 22.797C39.9692 22.8437 40.0628 22.9134 40.1378 23.0009C40.2128 23.0885 40.2673 23.1916 40.2973 23.3029C40.5103 23.8889 40.671 24.4926 40.7774 25.1069C41.0406 26.3767 41.2651 27.662 41.4974 28.9318C41.5584 29.3415 41.7483 29.7211 42.0394 30.0157C43.9828 30.0157 46.0114 30.1551 48.0012 30.0157C48.1978 29.8414 48.3542 29.6265 48.4598 29.3859C48.5654 29.1453 48.6176 28.8847 48.6129 28.6221C48.9071 26.9187 49.2013 25.2076 49.5343 23.5119C49.6736 22.8228 49.7433 22.8151 50.835 22.7841C51.2918 25.2153 49.7743 27.4297 49.8517 29.8144C50.5563 30.1706 51.0596 30.1396 51.4777 29.466C51.8671 28.8397 52.2937 28.2373 52.7552 27.662C53.181 27.1432 53.5294 26.5238 54.3037 26.2838C54.5128 27.058 53.723 27.4452 53.5294 28.0491C53.3359 28.653 52.8016 29.2105 52.8946 29.946C53.5445 30.152 54.2275 30.2334 54.9076 30.1861C55.704 30.1956 56.4916 30.3532 57.2304 30.6506C57.3172 30.7011 57.4 30.758 57.4782 30.821C57.4318 30.4977 57.4563 30.1683 57.5499 29.8555C57.6435 29.5426 57.8039 29.2539 58.0202 29.0092C58.997 27.8958 60.0307 26.8336 61.1172 25.827C62.5865 24.4944 63.861 22.9619 64.9034 21.2743C65.4937 20.337 65.8643 19.2782 65.9873 18.1773C66.0442 17.7146 66.0069 17.2451 65.8779 16.7972C65.7488 16.3492 65.5306 15.9319 65.2363 15.5704C64.942 15.2088 64.5777 14.9105 64.1652 14.6932C63.7528 14.4759 63.3007 14.3442 62.8361 14.306C61.6028 14.1593 60.3526 14.2593 59.1583 14.6002C58.0898 14.9021 57.0291 15.266 55.9374 15.4751C53.6998 15.8932 51.5009 15.9319 49.5575 14.4144C49.1579 14.1241 48.7267 13.8799 48.2722 13.6866C44.7725 12.0451 41.3735 11.7199 38.2068 14.515C38.1216 14.6002 38.0132 14.6699 37.9203 14.7473C37.4444 15.149 36.8837 15.4378 36.2803 15.592C35.6769 15.7462 35.0465 15.7618 34.4362 15.6377C33.4683 15.4751 32.516 15.1654 31.5559 14.9254C30.1158 14.5615 28.6834 14.1511 27.2355 13.8491C25.5206 13.5253 23.7476 13.7361 22.1564 14.4531C21.505 14.678 20.952 15.1221 20.5919 15.7096C20.2317 16.2971 20.0869 16.9915 20.182 17.674C20.2455 18.9238 20.7283 20.1158 21.5525 21.0575C22.3621 21.9902 23.2592 22.8431 24.2314 23.6048C25.8961 24.8824 27.6614 26.036 29.3725 27.2671C30.1468 27.8401 30.9675 28.4362 31.6953 29.0866C32.0233 29.3769 32.2387 29.7734 32.3038 30.2065C32.3689 30.6397 32.2796 31.0819 32.0514 31.4559C31.4119 32.6701 30.4707 33.6993 29.3183 34.4445C27.7698 35.4743 26.2213 36.4498 24.5643 37.3248C21.9473 38.7339 19.2297 39.9495 16.6359 41.3974C6.83375 46.8946 1.55328 55.4115 0.244783 66.4525C-0.159471 69.1544 -0.0623572 71.9077 0.53126 74.5745C1.88297 80.1727 5.16794 85.1139 9.80691 88.5267ZM32.2605 71.2993C32.3096 70.7447 32.4537 70.2025 32.6863 69.6966C32.7471 69.5181 32.865 69.3645 33.0217 69.2596C33.1784 69.1546 33.3653 69.1042 33.5535 69.1159C33.7712 69.1408 33.9733 69.2411 34.1247 69.3996C34.276 69.558 34.3671 69.7645 34.382 69.9831C34.4218 70.1661 34.4348 70.3538 34.4207 70.5406C34.1342 73.8312 35.613 76.2469 38.1449 78.1593C39.4504 79.1703 40.9755 79.86 42.5969 80.1724C42.7864 77.7306 42.8485 75.2806 42.7827 72.8324C42.8292 70.3083 42.7827 67.7842 42.7827 65.2601V57.8117C42.3868 57.3514 41.8881 56.9907 41.3271 56.7587C40.0643 56.0917 39.0251 55.0687 38.3384 53.8165C37.7424 52.8305 37.4397 51.6951 37.4657 50.5432C37.4918 49.3914 37.8455 48.2708 38.4855 47.3127C39.2464 46.0942 40.2443 45.0411 41.42 44.2157C41.8691 43.8827 42.3259 43.5653 42.7053 43.2943C42.8214 42.2258 42.9221 41.2503 43.0305 40.2669C43.1001 39.8179 43.3866 39.4617 43.8744 39.4617C44.0939 39.4577 44.3073 39.5343 44.4743 39.677C44.6412 39.8196 44.75 40.0185 44.7803 40.236C44.9274 40.9483 45.0358 41.6761 45.1674 42.4426H48.1483C48.5355 42.1639 48.4038 41.7845 48.3884 41.4206C48.3291 40.6815 48.3085 39.9397 48.3264 39.1985C48.3264 39.0717 48.3515 38.9462 48.4002 38.8293C48.449 38.7123 48.5204 38.6061 48.6103 38.5168C48.7003 38.4276 48.8071 38.357 48.9244 38.3092C49.0418 38.2614 49.1675 38.2374 49.2942 38.2384C49.8285 38.1842 50.0685 38.5403 50.2311 38.9662C50.5047 39.7149 50.6816 40.4955 50.7576 41.289C50.8428 41.8387 50.866 42.3884 50.9047 42.8375C51.2376 43.4104 51.7564 43.5111 52.1822 43.7434C53.6806 44.519 54.8529 45.8039 55.4883 47.3669C55.8832 48.3502 55.8445 48.5206 55.1399 49.6045C53.3281 49.2871 53.212 46.9488 51.3925 46.3991C50.9744 47.7773 51.3925 49.0935 51.3925 50.3943C51.3925 51.695 51.4931 52.9881 51.5396 54.2656C51.5491 55.6777 51.676 57.0865 51.919 58.4776C56.8897 60.7229 59.4603 64.8033 59.8939 70.1844C60.3429 75.7126 57.935 79.8317 53.0649 82.6113C52.9027 83.3745 52.8661 84.1591 52.9565 84.9341C53.0093 85.4288 52.9291 85.9286 52.7242 86.3819C52.66 86.5306 52.5507 86.6554 52.4118 86.7388C52.2729 86.8221 52.1114 86.8598 51.95 86.8465C51.7928 86.8429 51.6411 86.788 51.5181 86.6901C51.3951 86.5923 51.3074 86.4569 51.2686 86.3045C51.1293 85.7678 51.0284 85.2219 50.9666 84.6708C50.991 84.2005 50.8664 83.7345 50.6105 83.3391C48.9768 83.3391 47.2812 83.7882 45.6862 83.3391C45.1055 83.9895 45.4539 84.5547 45.4229 85.0812C45.413 85.6963 45.356 86.3098 45.2526 86.9162C45.2255 87.1989 45.0938 87.4613 44.8832 87.6518C44.6726 87.8423 44.3984 87.9472 44.1144 87.946C43.5724 87.946 43.1621 87.5743 43.0305 86.8775C42.9681 86.4489 42.9293 86.0173 42.9143 85.5845L42.6743 82.9365C41.8071 82.5648 40.9787 82.1622 40.1192 81.8448C37.4176 80.8627 35.1335 78.9856 33.6464 76.5256C32.6467 74.9725 32.1617 73.1438 32.2605 71.2993Z" fill="#5DCDF1"/>
<path d="M34.3972 69.9827C34.3824 69.7641 34.2913 69.5576 34.14 69.3992C33.9886 69.2407 33.7865 69.1404 33.5688 69.1155C33.3805 69.1038 33.1937 69.1542 33.037 69.2592C32.8803 69.3641 32.7624 69.5177 32.7016 69.6962C32.4636 70.2012 32.3143 70.7433 32.2603 71.2989C32.1699 73.1658 32.6771 75.0128 33.7081 76.5717C35.1952 79.0317 37.4794 80.9088 40.181 81.8908C41.0404 82.2005 41.8689 82.6109 42.736 82.9825L42.9761 85.6305C42.9936 86.0635 43.0349 86.4951 43.0999 86.9235C43.2316 87.6204 43.6419 87.992 44.1839 87.992C44.4679 87.9933 44.7421 87.8884 44.9527 87.6979C45.1633 87.5073 45.295 87.2449 45.3221 86.9622C45.4273 86.3611 45.4869 85.7529 45.5001 85.1427C45.5001 84.6162 45.1827 84.051 45.7634 83.4007C47.3584 83.8188 49.054 83.4007 50.6877 83.4007C50.9436 83.796 51.0682 84.2621 51.0439 84.7324C51.1056 85.2834 51.2065 85.8294 51.3458 86.3661C51.3847 86.5184 51.4723 86.6538 51.5953 86.7517C51.7183 86.8496 51.87 86.9045 52.0272 86.9081C52.1886 86.9213 52.3501 86.8837 52.489 86.8003C52.6279 86.717 52.7372 86.5922 52.8014 86.4435C53.0063 85.9901 53.0865 85.4903 53.0337 84.9956C52.9433 84.2206 52.98 83.4361 53.1421 82.6728C58.0122 79.8932 60.4202 75.7742 59.9711 70.246C59.5375 64.8648 56.967 60.7845 51.9962 58.5391C51.7511 57.1353 51.6242 55.7134 51.6168 54.2884C51.5704 52.9877 51.4697 51.6946 51.4697 50.4171C51.4697 49.1396 51.0206 47.8001 51.4697 46.4219C53.2892 46.9717 53.4054 49.3099 55.2171 49.6274C55.9217 48.5434 55.9914 48.3731 55.5655 47.3898C54.9197 45.8316 53.7392 44.555 52.2362 43.7894C51.8104 43.5572 51.2916 43.4565 50.9587 42.8836C50.9587 42.4345 50.8967 41.8848 50.8116 41.335C50.7356 40.5415 50.5587 39.761 50.2851 39.0122C50.107 38.5864 49.8825 38.238 49.3482 38.2844C49.0949 38.2905 48.8543 38.3965 48.6788 38.5792C48.5034 38.762 48.4072 39.0067 48.4114 39.26C48.3934 40.0013 48.4141 40.743 48.4733 41.4821C48.4733 41.846 48.6204 42.2564 48.2333 42.5042H45.1904C45.0588 41.7299 44.9504 41.0098 44.8033 40.2975C44.7874 40.0648 44.6815 39.8473 44.5081 39.6913C44.3347 39.5352 44.1073 39.4527 43.8742 39.4613C43.3632 39.4613 43.0999 39.8097 43.0535 40.2975C42.9451 41.2808 42.8444 42.2564 42.7283 43.3249C42.3489 43.5959 41.8921 43.9133 41.443 44.2463C40.2673 45.0716 39.2694 46.1248 38.5086 47.3433C37.8686 48.3013 37.5148 49.4219 37.4888 50.5738C37.4627 51.7257 37.7654 52.8611 38.3615 53.8471C39.0481 55.0993 40.0873 56.1223 41.3501 56.7893C41.9112 57.0213 42.4098 57.382 42.8057 57.8423V65.2907C42.8057 67.8148 42.8057 70.3389 42.8057 72.863C42.8715 75.3112 42.8095 77.7612 42.6199 80.203C40.9985 79.8905 39.4734 79.2009 38.1679 78.1899C35.6361 76.2774 34.1572 73.8618 34.4437 70.5711C34.4584 70.3738 34.4427 70.1753 34.3972 69.9827ZM57.2844 69.8511C57.687 73.7224 56.5101 77.0285 53.2582 79.4519C53.1134 79.382 52.9918 79.2717 52.908 79.1344C52.8242 78.997 52.7819 78.8385 52.7859 78.6777C52.7395 73.0023 52.2749 67.3425 52.0581 61.6439C54.8068 62.6892 56.8818 65.9411 57.2844 69.8511ZM50.6025 80.4972C48.9456 81.3489 47.2887 80.9927 45.4924 80.9385C45.1982 77.2762 45.4227 73.6604 45.3995 70.0988C45.3763 66.5372 45.3298 62.8363 45.5543 59.1121C46.979 59.1121 48.0939 59.7547 49.2321 60.1728C49.627 61.9149 50.5174 75.2709 50.6025 80.4972ZM45.3453 45.338C46.2291 44.9629 47.2028 44.8526 48.1481 45.0205C48.3219 45.1522 48.4597 45.3255 48.549 45.5243C48.6383 45.7232 48.6762 45.9413 48.6591 46.1587C48.8527 49.3022 49.0463 52.4457 49.2089 55.5892C49.3181 56.1118 49.2528 56.6558 49.023 57.1377C47.8219 56.965 46.6592 56.5879 45.5853 56.0228C45.4227 52.4379 45.2756 48.8918 45.3453 45.338ZM42.8135 54.5749C39.2286 52.6238 39.6158 48.9073 42.6818 46.7781C42.9438 49.3688 42.9878 51.9769 42.8135 54.5749Z" fill="#1B1624"/>
<path d="M32.6782 31.4397C32.6827 31.7526 32.7992 32.0536 33.0066 32.288C33.214 32.5223 33.4986 32.6746 33.8086 32.7172C33.9867 32.7637 34.188 32.7172 34.3584 32.7714C35.3417 33.0966 36.325 32.7714 37.3006 32.7714C43.1772 32.6165 49.0461 32.6088 54.915 32.8875C55.5954 32.912 56.2766 32.8783 56.9513 32.7869C57.2026 32.7896 57.4456 32.6968 57.631 32.5272C57.8164 32.3575 57.9305 32.1238 57.9501 31.8733C57.9691 31.6828 57.9385 31.4907 57.8611 31.3157C57.7838 31.1406 57.6624 30.9886 57.5088 30.8745C57.4306 30.8115 57.3478 30.7546 57.261 30.7041C56.5222 30.4067 55.7346 30.2491 54.9382 30.2396C54.2581 30.2869 53.5751 30.2055 52.9252 29.9995C52.8322 29.2253 53.3897 28.7452 53.5601 28.1026C53.7304 27.46 54.5047 27.1425 54.3343 26.3373C53.5601 26.5773 53.2503 27.1967 52.7858 27.7155C52.3243 28.2908 51.8977 28.8932 51.5083 29.5195C51.0902 30.1931 50.5869 30.2241 49.8823 29.8679C49.8049 27.4677 51.3224 25.2688 50.8656 22.8376C49.7739 22.8376 49.7042 22.8763 49.5649 23.5654C49.2319 25.2611 48.9377 26.9722 48.6435 28.6756C48.6435 28.9293 48.5905 29.1802 48.4879 29.4122C48.3852 29.6442 48.2351 29.8522 48.0473 30.0228C46.0575 30.1776 44.0289 30.0228 42.0855 30.0228C41.7944 29.7281 41.6045 29.3485 41.5435 28.9388C41.3112 27.669 41.0867 26.3837 40.8234 25.114C40.7103 24.5096 40.5445 23.9163 40.3279 23.3409C40.2988 23.2289 40.2449 23.1249 40.1703 23.0365C40.0957 22.9481 40.0022 22.8776 39.8968 22.83C39.7913 22.7825 39.6765 22.7592 39.5609 22.7619C39.4452 22.7645 39.3316 22.7931 39.2285 22.8454C38.6633 23.9835 39.2982 25.0752 39.4917 26.1902C39.8304 27.3494 40.028 28.5452 40.0802 29.7518C39.8609 29.9189 39.598 30.0188 39.3231 30.0394C39.0483 30.06 38.7733 30.0004 38.5316 29.8679C38.0794 29.0009 37.7087 28.0937 37.4244 27.158C37.1457 26.3837 36.8205 25.5398 36.4953 24.7346C36.4362 24.5611 36.3407 24.4022 36.2152 24.2687C36.0897 24.1352 35.937 24.03 35.7675 23.9603C35.6009 23.8943 35.4154 23.8943 35.2488 23.9603C35.1727 24.0074 35.1091 24.072 35.0633 24.1488C35.0174 24.2256 34.9908 24.3123 34.9855 24.4016C35.078 24.8183 35.2022 25.2273 35.3572 25.625C35.8914 27.0573 36.4411 28.4897 37.0373 30.0537C35.8682 30.1234 34.8849 30.1389 33.9403 30.2473C33.6241 30.2683 33.3251 30.3989 33.0948 30.6165C32.8644 30.8341 32.7171 31.1252 32.6782 31.4397Z" fill="#1B1624"/>
<path d="M72.7387 23.6512C72.955 23.5315 73.1644 23.3996 73.3658 23.2563C73.8923 22.9311 74.4266 22.6214 74.9144 22.2807C76.3467 21.3361 77.7791 20.3683 79.2038 19.4082C79.4629 19.2679 79.679 19.0598 79.8291 18.8061C79.9791 18.5525 80.0573 18.2628 80.0555 17.9681C80.0125 17.742 79.901 17.5346 79.7362 17.3739C79.5714 17.2133 79.3612 17.1072 79.1341 17.07C78.7668 17.0009 78.387 17.0757 78.0733 17.279C76.076 18.3753 74.1495 19.5959 72.3051 20.9335C71.9684 21.2007 71.6526 21.4932 71.3605 21.8084C71.1459 21.9881 70.9985 22.2352 70.9423 22.5093C70.886 22.7835 70.9243 23.0686 71.0508 23.3183C71.2518 23.5581 71.5289 23.722 71.836 23.7826C72.1431 23.8431 72.4616 23.7968 72.7387 23.6512Z" fill="#1B1624"/>
<path d="M80.0554 32.121C78.5467 31.6286 76.9891 31.3015 75.4098 31.1455C75.1388 31.1455 74.953 31.1455 74.7671 31.1455C74.0626 31.2074 73.6212 31.5403 73.5283 32.0513C73.4916 32.3591 73.5646 32.67 73.7346 32.9292C73.9045 33.1884 74.1605 33.3793 74.4574 33.4682C74.8608 33.6206 75.2784 33.7321 75.704 33.8012C77.4058 34.1006 79.0888 34.4987 80.7444 34.9935C81.2173 35.1381 81.7017 35.2417 82.1923 35.3032C82.5003 35.3648 82.8202 35.3016 83.0816 35.1273C83.3429 34.9531 83.5244 34.6821 83.586 34.3741C83.6476 34.0661 83.5843 33.7462 83.4101 33.4849C83.2358 33.2235 82.9649 33.0421 82.6569 32.9805C81.8056 32.6478 80.9372 32.3609 80.0554 32.121Z" fill="#1B1624"/>
<path d="M73.6215 25.9888C73.2807 26.0239 72.9661 26.1876 72.7417 26.4465C72.5174 26.7054 72.4 27.0401 72.4137 27.3824C72.5401 27.693 72.7535 27.9604 73.0281 28.1527C73.3028 28.345 73.6271 28.4539 73.9622 28.4664C74.147 28.4585 74.3309 28.4352 74.5119 28.3967L76.7882 28.1877C78.4215 28.1664 80.0514 28.0319 81.6661 27.7851C81.8209 27.7902 81.9752 27.7646 82.12 27.7096C82.2649 27.6546 82.3973 27.5714 82.5097 27.4647C82.6221 27.3581 82.7121 27.2302 82.7747 27.0885C82.8372 26.9468 82.8709 26.794 82.8739 26.6392C82.9126 26.0275 82.4791 25.5474 81.6971 25.5087C78.9958 25.3744 76.2879 25.5354 73.6215 25.9888Z" fill="#1B1624"/>
</svg>
