<svg width="110" height="110" viewBox="0 0 110 110" fill="none" xmlns="http://www.w3.org/2000/svg">
<path d="M72.5595 43.5112C70.9033 44.1962 69.4801 45.3446 68.4606 46.8185C67.4411 48.2924 66.8686 50.0293 66.8119 51.8206C66.6189 53.4648 66.8905 55.1301 67.5958 56.6278C68.3011 58.1255 69.4119 59.3956 70.8023 60.2942C72.166 61.2882 73.7715 61.8979 75.4512 62.0597C77.1309 62.2214 78.8233 61.9293 80.3516 61.2138C84.1614 59.4895 86.2716 56.5993 86.4276 52.3789C86.4728 51.7913 86.4728 51.2012 86.4276 50.6136C85.4915 44.1927 78.6273 40.7934 72.5595 43.5112Z" fill="#C9B1FB"/>
<path d="M94.7369 49.7687C95.3692 47.7734 94.8765 46.0081 93.0948 44.9325C92.6146 44.6359 92.1613 44.298 91.74 43.9225C90.6151 43.98 90.0978 43.553 89.8926 42.3461C89.7612 41.3772 89.6052 40.4165 89.4738 39.4476C89.3835 39.2506 89.2767 39.0699 89.1782 38.8811C88.3571 37.3621 87.224 36.3768 85.3766 36.7709C84.7469 36.9413 84.0815 36.9283 83.459 36.7334C82.8364 36.5385 82.2824 36.1698 81.8623 35.6706C79.7111 33.2074 77.3382 32.7394 74.5957 34.6935C74.164 34.9976 73.6642 35.191 73.1402 35.2569C72.6163 35.3227 72.0841 35.259 71.5906 35.0712C70.5971 34.751 69.5707 34.554 68.8317 34.3733C67.1896 34.5375 65.884 34.9563 65.0301 36.0155H65.5884C65.8717 36.1869 66.0825 36.4561 66.1808 36.7723C66.2791 37.0885 66.2583 37.4297 66.1221 37.7316C66.0171 38.0752 65.8226 38.3848 65.5586 38.6287C65.2946 38.8725 64.9705 39.0418 64.6196 39.1192C63.8366 39.2789 63.0295 39.2789 62.2466 39.1192C62.0167 39.2588 61.7868 39.3984 61.5323 39.5215C60.9765 39.7443 60.4894 40.1099 60.1203 40.5814C59.7512 41.0528 59.5132 41.6135 59.4303 42.2065C59.3543 43.0715 59.0969 43.9108 58.6749 44.6697L59.8573 44.7683C59.0362 45.4333 58.404 45.811 57.9113 46.2873C57.4184 46.806 56.9578 47.3544 56.5319 47.9294H56.2445C56.0927 48.4591 56.1515 49.0269 56.4087 49.5141C56.9283 50.5262 57.0765 51.6884 56.8275 52.7985C57.1221 52.8044 57.4082 52.8988 57.6486 53.0694C57.5008 53.8905 57.353 54.7855 57.1805 55.7297C56.9506 55.779 56.7125 55.8118 56.4744 55.8447C56.5584 55.9813 56.6576 56.108 56.77 56.2224C57.3373 56.7709 57.7814 57.4338 58.0731 58.1671C58.3647 58.9004 58.497 59.6873 58.4614 60.4756C58.3892 61.2093 58.5907 61.9438 59.0272 62.5379C59.4637 63.132 60.1044 63.5439 60.8261 63.6943C61.718 63.8904 62.5389 64.3278 63.1991 64.9587H63.3715C64.0872 65.0258 64.7492 65.3671 65.219 65.9112C65.5114 66.1223 65.7356 66.4144 65.864 66.7514C65.9924 67.0885 66.0194 67.4557 65.9415 67.8079H65.7034C66.1017 68.4196 66.3385 69.1222 66.3916 69.8502C66.4447 70.5782 66.3125 71.3078 66.0072 71.9708C65.6377 72.9479 65.2354 73.925 64.7838 74.8692C64.0448 76.4238 63.2839 77.962 62.5012 79.4837H63.3879C63.1157 80.5575 62.7015 81.5902 62.1563 82.5546C61.6997 82.6268 61.239 82.6707 60.7769 82.686C60.079 83.9258 59.3646 85.1492 58.6092 86.3562C58.1166 87.1773 57.6486 87.9245 57.2134 88.7291C57.1315 88.9016 57.0938 89.0917 57.1037 89.2823C57.1137 89.4729 57.171 89.658 57.2704 89.821C57.3698 89.9839 57.5082 90.1196 57.6731 90.2157C57.838 90.3117 58.0243 90.3652 58.2151 90.3713C58.7373 90.3281 59.2558 90.2486 59.7669 90.1332C62.846 89.4435 63.0513 89.501 64.6935 92.4733C65.0137 93.048 65.2764 93.6556 65.5967 94.2304C65.9169 94.8052 66.3603 95.5934 66.7954 96.2421C67.0106 96.493 67.3144 96.6511 67.6434 96.6833C67.9724 96.7154 68.3011 96.6191 68.5608 96.4145C69.1294 95.8723 69.6589 95.2907 70.1455 94.6738C70.868 93.7378 71.5167 92.7442 72.231 91.8C72.3378 91.6322 72.4871 91.4957 72.6638 91.4044C72.8404 91.3131 73.0382 91.2703 73.2368 91.2803C73.4354 91.2903 73.6278 91.3528 73.7944 91.4614C73.961 91.57 74.0959 91.7208 74.1852 91.8985C74.4972 92.3173 74.7271 92.8017 75.0063 93.2205C76.0819 94.682 76.944 94.6245 78.0115 93.0316C78.4466 92.3748 78.8325 91.6686 79.2431 91.0117C80.8278 88.6306 81.2876 88.5485 83.6113 90.0018C84.3913 90.4863 85.1549 91.0035 85.9513 91.4633C86.2763 91.6819 86.66 91.7965 87.0516 91.7918C87.3718 91.7507 87.8727 91.3895 87.8727 91.1431C87.9083 90.498 87.8362 89.8514 87.6592 89.23C86.7806 85.7979 85.7871 82.3904 84.9825 78.9336C84.4488 76.6428 84.1614 74.2945 83.7837 71.9544C83.776 71.8752 83.776 71.7954 83.7837 71.7163C83.4721 71.9841 83.0823 72.1439 82.6724 72.1721C82.2625 72.2002 81.8545 72.095 81.5093 71.8723C80.7433 71.3689 79.9325 70.9373 79.0871 70.5832C78.8549 70.5357 78.6175 70.5192 78.3809 70.5339C78.427 72.2913 78.3529 74.0498 78.1592 75.797C78 79.5284 77.3258 83.2199 76.1558 86.7667C75.8987 87.5095 75.557 88.2203 75.1377 88.8851C75.0048 89.1532 74.7727 89.3589 74.4906 89.4586C74.2085 89.5582 73.8986 89.544 73.6269 89.4189C73.3752 89.3323 73.1653 89.1541 73.039 88.9198C72.9127 88.6855 72.8793 88.4122 72.9454 88.1544C73.0064 87.5701 73.1218 86.9929 73.2902 86.4301C74.0176 83.9881 74.5665 81.4963 74.9324 78.9746C75.3066 76.1749 75.4275 73.3471 75.2937 70.5257L72.9946 71.1251C71.7866 71.4454 70.516 71.4454 69.308 71.1251C68.8531 71.0504 68.4366 70.8248 68.1256 70.4846C68.0088 70.3665 67.9268 70.2184 67.8886 70.0567C67.8505 69.895 67.8577 69.7259 67.9095 69.568C67.9613 69.4102 68.0556 69.2696 68.1821 69.1619C68.3086 69.0542 68.4623 68.9834 68.6265 68.9574C68.6892 68.9502 68.7526 68.9502 68.8153 68.9574C71.0322 69.1134 73.0603 68.3744 75.1048 67.6847C76.6785 67.154 78.3947 67.2391 79.9082 67.9228C80.8936 68.426 81.908 68.8702 82.9462 69.253C83.279 69.3488 83.5753 69.5425 83.7964 69.8091C84.0176 70.0756 84.1533 70.4026 84.186 70.7474C84.3314 70.6128 84.5099 70.5193 84.7033 70.4764C87.0516 69.9838 88.2586 68.3827 88.9647 66.2725C89.1794 65.6179 89.5259 65.0143 89.9829 64.4989C90.1072 64.3294 90.2567 64.1799 90.4263 64.0555C90.7301 63.7756 91.06 63.5254 91.4116 63.3083C91.9698 62.9636 92.4948 62.5678 92.9798 62.126C94.7369 60.4838 95.2542 58.9155 94.1211 56.8464C93.625 56.0772 93.353 55.185 93.3356 54.2699C93.3182 53.3548 93.5561 52.4529 94.0226 51.6654C94.3235 51.0586 94.5628 50.4232 94.7369 49.7687ZM89.17 53.3896C88.6527 59.8762 83.2336 65.1968 76.4842 64.7452C69.2997 64.8356 63.5686 57.9631 64.0776 51.4355C64.6524 43.9964 70.1865 39.4394 76.632 39.5872C85.9678 39.8007 89.6052 47.9294 89.17 53.3896Z" fill="#C9B1FB"/>
<path d="M0.0988013 80.6492C0.148066 81.9465 0.632506 82.3981 1.93803 82.4309C3.84295 82.4966 5.75881 82.5322 7.68563 82.5377C10.6251 82.5377 13.5728 82.5377 16.5205 82.5377L43.879 82.6855C48.2144 82.6855 52.5415 82.6855 56.8768 82.6855C58.1741 82.6855 59.4797 82.7512 60.7934 82.6855C61.2555 82.6702 61.7162 82.6263 62.1728 82.5541C62.6967 81.592 63.0915 80.565 63.347 79.4997H62.4602C59.1759 79.4997 56.1378 79.4997 53.0834 79.4997H43.0333H32.9997H22.9578C19.6078 79.4997 16.266 79.4997 12.9159 79.5982C9.16358 79.7296 4.12212 79.6804 2.86586 79.3272C2.81659 76.3549 2.74269 73.3415 2.74269 70.2953C2.74269 67.2491 2.81659 64.2603 2.83301 61.2634C2.84944 58.2664 2.83301 55.2284 2.83301 52.2314C2.83301 49.2345 2.83301 46.1965 2.83301 43.1995C2.83301 40.2025 2.79196 37.1645 2.77554 34.1676C2.75912 31.1706 2.72627 28.1326 2.77554 25.1356C2.8248 22.1387 2.40605 19.1663 2.77554 16.0216C6.47863 15.7917 10.075 16.0955 13.6631 16.0216C17.2513 15.9477 20.8476 15.9313 24.4358 15.9395C28.0239 15.9477 31.612 16.0298 35.192 16.0544C38.7719 16.0791 42.4011 16.0544 46.0057 16.0544C49.6102 16.0544 53.223 16.0544 56.8358 16.0544C60.4485 16.0544 64.0367 16.0544 67.633 16.0544C71.2294 16.0544 74.8339 16.0544 78.4385 16.1448C82.0431 16.2351 85.5984 15.997 89.1126 16.2187C89.4646 16.9332 89.5879 17.7388 89.4657 18.5259C89.3877 20.011 89.3877 21.4993 89.4657 22.9844C89.3754 27.3115 89.3918 31.6386 89.3097 35.9657C89.308 37.1282 89.3931 38.2891 89.5642 39.4389C89.6956 40.4078 89.8516 41.3685 89.983 42.3374C90.1472 43.5444 90.7055 43.9795 91.8304 43.9139C92.0836 43.8971 92.3358 43.8669 92.5858 43.8235C92.8814 42.7479 92.5858 41.6312 92.5858 40.5392C92.6433 37.2549 92.5858 33.9705 92.5858 30.6862C92.5858 27.7303 92.5037 24.7826 92.5858 21.8267C92.6269 19.6754 92.5283 17.5078 92.3641 15.3565C92.2409 13.78 91.4855 13.0657 89.9665 13.0328C86.8875 12.9589 83.8002 13.0328 80.7211 13.0328C80.4091 13.0328 80.0396 12.9589 79.8097 13.271C79.4402 13.78 79.1282 13.739 78.7423 13.271C78.6502 13.1813 78.5383 13.1145 78.4156 13.076C78.293 13.0375 78.163 13.0284 78.0362 13.0493C77.1166 13.2792 76.2216 12.9672 75.3184 13.0082C71.4511 13.1889 67.5756 13.0739 63.7082 13.0739H45.8086C41.2187 13.0739 36.6289 13.0246 32.039 13.0739C31.0291 13.0739 29.9206 12.8768 28.9764 13.5255C28.8368 13.6158 28.5083 13.6733 28.4509 13.5994C27.7529 12.7783 26.8662 13.2627 26.0533 13.2053C21.9479 12.9343 17.8424 13.2053 13.6713 13.156C10.0586 13.0985 6.454 13.2135 2.84122 13.2299C0.657139 13.2299 0.295862 13.5419 0.197332 15.6932C0.197332 16.153 0.197332 16.6128 0.197332 17.0726C0.197332 20.4144 0.197332 23.7644 0.197332 27.1062C0.197332 31.6386 0.115223 36.1382 0.115223 40.687C0.115223 46.4346 0.156278 52.2397 0.115223 58.0119C0.115223 63.2668 0.0331144 68.5135 0.0249035 73.7685C-0.0325724 76.0593 0.0166928 78.3584 0.0988013 80.6492Z" fill="black"/>
<path d="M89.1702 53.389C89.6054 47.9288 85.9516 39.8 76.6323 39.5865C70.1867 39.4387 64.6526 43.9958 64.0779 51.4348C63.5688 58.0035 69.3 64.8349 76.4845 64.7446C83.2338 65.1962 88.6529 59.8755 89.1702 53.389ZM80.36 61.2139C78.8317 61.9294 77.1394 62.2216 75.4596 62.0598C73.7799 61.898 72.1744 61.2883 70.8108 60.2943C69.4204 59.3958 68.3095 58.1257 67.6042 56.6279C66.8989 55.1302 66.6273 53.4649 66.8203 51.8207C66.877 50.0294 67.4495 48.2926 68.469 46.8186C69.4886 45.3447 70.9118 44.1963 72.5679 43.5113C78.6357 40.7935 85.5 44.1846 86.4278 50.6137C86.4731 51.2013 86.4731 51.7915 86.4278 52.379C86.28 56.5994 84.1698 59.4896 80.36 61.2139Z" fill="black"/>
<path d="M59.2663 34.2496C58.0798 34.2464 56.9074 34.5072 55.8342 35.0132C54.7509 35.4741 53.7073 36.0233 52.714 36.6554C52.4069 36.909 52.0308 37.0649 51.6342 37.103C51.2376 37.141 50.8387 37.0595 50.4889 36.8688C50.1077 36.625 49.7647 36.3261 49.4708 35.9821C47.648 34.0032 45.4639 33.7077 43.0006 34.4959C41.6198 34.9332 40.277 35.4825 38.9855 36.1381C38.4732 36.4345 37.881 36.563 37.2919 36.5056C36.7028 36.4481 36.1465 36.2076 35.7012 35.8178C35.1346 35.3745 34.5188 34.9968 33.9112 34.6026C33.1352 34.0497 32.2358 33.6948 31.2913 33.5689C30.3468 33.4429 29.3858 33.5498 28.492 33.8801C27.3537 34.2353 26.2535 34.7028 25.2077 35.2759C23.7298 36.097 22.2846 36.2448 20.8724 34.9557C20.3552 34.494 19.7395 34.1564 19.0722 33.9686C18.4049 33.7808 17.7035 33.7477 17.0215 33.8719C16.5781 33.9376 16.2004 34.1346 15.7078 34.2167C13.9879 34.6338 12.4218 35.5307 11.1918 36.8031C11.0044 36.9868 10.849 37.2005 10.732 37.4354C10.5861 37.6925 10.5236 37.9885 10.553 38.2826C10.5824 38.5767 10.7023 38.8544 10.8962 39.0776C11.0637 39.2397 11.28 39.3421 11.5116 39.3688C11.7431 39.3955 11.9771 39.3451 12.1771 39.2254C12.8265 38.9172 13.4547 38.5661 14.0574 38.1744C15.5435 37.1973 17.0461 36.5322 18.8361 37.419C19.1481 37.575 19.5176 37.419 19.8542 37.8131C20.4829 38.6205 21.3904 39.164 22.3989 39.3372C23.4074 39.5104 24.4443 39.3006 25.3062 38.7491C26.1848 38.2975 27.0387 37.8131 27.8844 37.3122C28.6618 36.8041 29.5884 36.5746 30.513 36.6611C31.4376 36.7476 32.3056 37.145 32.9752 37.7885C33.5774 38.293 34.217 38.7514 34.8883 39.1597C35.4399 39.5187 36.0666 39.7462 36.7201 39.8245C37.3736 39.9028 38.0363 39.8298 38.6571 39.6113C39.7211 39.2982 40.7612 38.9085 41.769 38.4453C42.5132 38.0336 43.2904 37.6848 44.0927 37.4025C44.6167 37.1968 45.1905 37.1534 45.7396 37.2778C46.2886 37.4023 46.7876 37.6889 47.1717 38.1005C47.5823 38.5274 48.0585 38.9215 48.4772 39.291C49.1047 39.9779 49.9508 40.426 50.8714 40.5593C51.7921 40.6925 52.7305 40.5026 53.5269 40.0218C54.5779 39.4881 55.5714 38.8477 56.5896 38.2565C58.0429 37.4354 59.4141 36.9756 60.851 38.4207C61.2204 38.7797 61.68 39.0322 62.1812 39.1515C62.9641 39.3111 63.7712 39.3111 64.5541 39.1515C64.9109 39.0746 65.2404 38.9028 65.5078 38.6542C65.7751 38.4056 65.9704 38.0895 66.0731 37.7392C66.2239 37.4366 66.2561 37.0886 66.1634 36.7635C66.0708 36.4384 65.8599 36.1597 65.5722 35.9821H65.0139C63.5113 35.9821 63.3717 35.9 61.7296 34.9311C60.9871 34.481 60.1345 34.2451 59.2663 34.2496Z" fill="black"/>
<path d="M55.1361 44.6036C52.6729 44.6775 50.1603 44.8089 47.6642 44.8171C39.4041 44.8171 31.144 44.9868 22.8839 45.3261C22.1613 45.3261 21.4388 45.3754 20.7245 45.4329C20.3224 45.426 19.9336 45.5762 19.6406 45.8516C19.4455 46.0328 19.3045 46.2647 19.2335 46.5213C19.1624 46.7779 19.1641 47.0492 19.2383 47.305C19.7898 47.7729 20.5043 48.0031 21.2253 47.9454C22.0464 48.0029 22.8018 48.0357 23.59 48.0357L50.9404 47.97H56.4991C56.925 47.395 57.3857 46.8466 57.8785 46.3279C58.3712 45.8516 58.9624 45.5068 59.8245 44.8089L58.6422 44.7103C57.4762 44.6119 56.3059 44.5763 55.1361 44.6036Z" fill="black"/>
<path d="M83.8084 71.7491C83.925 71.6405 84.0222 71.5128 84.0958 71.3714C84.1979 71.1625 84.2406 70.9296 84.2189 70.6981C84.1863 70.3533 84.0505 70.0263 83.8294 69.7598C83.6082 69.4933 83.3119 69.2995 82.9791 69.2037C81.941 68.8209 80.9265 68.3768 79.9411 67.8736C78.4276 67.1898 76.7114 67.1048 75.1377 67.6355C73.0932 68.3252 71.0323 69.0641 68.8482 68.9081C68.7855 68.9009 68.7221 68.9009 68.6594 68.9081C68.4953 68.9341 68.3415 69.0049 68.215 69.1126C68.0885 69.2203 67.9942 69.3609 67.9424 69.5187C67.8907 69.6766 67.8834 69.8457 67.9216 70.0074C67.9597 70.1692 68.0417 70.3172 68.1585 70.4353C68.4695 70.7755 68.886 71.0011 69.3409 71.0758C70.5489 71.3961 71.8195 71.3961 73.0275 71.0758L75.3266 70.4764C75.4678 73.3083 75.3524 76.1471 74.9817 78.9582C74.6158 81.4799 74.067 83.9716 73.3396 86.4137C73.1712 86.9764 73.0557 87.5537 72.9947 88.1379C72.9286 88.3958 72.9621 88.669 73.0884 88.9034C73.2146 89.1377 73.4245 89.3158 73.6762 89.4024C73.948 89.5276 74.2578 89.5418 74.5399 89.4422C74.822 89.3425 75.0541 89.1368 75.187 88.8687C75.6064 88.2039 75.948 87.4931 76.2051 86.7503C77.3751 83.2035 78.0493 79.512 78.2086 75.7806C78.4023 74.0333 78.4763 72.2748 78.4303 70.5175C78.6668 70.5027 78.9042 70.5193 79.1364 70.5667C79.9818 70.9209 80.7926 71.3524 81.5586 71.8558C81.8963 72.0795 82.2964 72.1898 82.701 72.1706C83.1055 72.1514 83.4934 72.0037 83.8084 71.7491Z" fill="black"/>
<path d="M53.4364 55.9835C54.4286 56.0018 55.421 55.9634 56.4087 55.8686C56.6469 55.8686 56.885 55.8029 57.1149 55.7536C57.2873 54.8094 57.4351 53.9308 57.5829 53.0933C57.3426 52.9227 57.0565 52.8283 56.7618 52.8223H56.4087C54.9062 52.8223 53.3954 52.9044 51.8928 52.9209C46.5147 52.9865 41.1366 53.003 35.7667 53.1097C32.8847 53.1672 30.0191 53.356 27.1206 53.4792C26.7266 53.4675 26.3362 53.558 25.9875 53.7419C25.812 53.8336 25.665 53.9716 25.5624 54.141C25.4598 54.3104 25.4055 54.5046 25.4055 54.7026C25.4055 54.9006 25.4598 55.0949 25.5624 55.2642C25.665 55.4336 25.812 55.5716 25.9875 55.6633C26.456 55.9065 26.979 56.0253 27.5066 56.0081C32.0964 56.1231 36.6781 56.197 41.2597 56.1067C45.3159 56.0164 49.3803 55.9999 53.4364 55.9835Z" fill="black"/>
<path d="M35.9639 68.0788C36.685 68.0498 37.4008 67.9425 38.0987 67.7586C38.3905 67.7004 38.6521 67.5405 38.8371 67.3075C39.022 67.0744 39.1182 66.7833 39.1086 66.4859C39.1117 66.2221 39.0247 65.9653 38.862 65.7577C38.6992 65.5502 38.4705 65.4044 38.2136 65.3446C37.461 65.1026 36.6718 64.9942 35.8817 65.0243C29.6661 65.0243 23.4423 64.934 17.2185 64.9258C14.9277 64.9258 12.6368 65.0326 10.346 65.1147C9.8501 65.076 9.35747 65.2225 8.96321 65.5258C8.56896 65.829 8.30104 66.2676 8.21118 66.7568C8.39015 67.0798 8.65952 67.3436 8.98624 67.5157C9.31295 67.6878 9.68281 67.7608 10.0504 67.7257C12.604 67.8242 15.1576 67.9803 17.7111 68.0377C20.7081 68.1116 23.7215 68.128 26.7431 68.1445C29.7647 68.1609 32.8848 68.1198 35.9639 68.0788Z" fill="black"/>
<path d="M90.3853 82.6859C91.7729 82.6202 92.2738 82.0947 92.4544 80.781C92.5734 79.9375 92.6392 79.0874 92.6515 78.2356C92.709 73.5883 92.3231 68.941 92.6515 64.2772C92.6361 64.0267 92.592 63.7787 92.5201 63.5382C91.8068 63.446 91.0837 63.6057 90.4756 63.9898C90.3061 64.1141 90.1565 64.2637 90.0322 64.4332C89.8492 64.6838 89.7053 64.9606 89.6053 65.2543C89.3945 65.945 89.3138 66.6689 89.3671 67.3891C89.3671 69.409 89.441 71.4288 89.4246 73.4405C89.4082 75.4522 89.3097 77.2339 89.2522 79.0978C88.1027 79.8532 86.8382 79.2784 85.7051 79.6561C85.6067 80.6634 85.8685 81.6729 86.4441 82.5053C87.766 82.612 89.0798 82.7844 90.3853 82.6859Z" fill="black"/>
<path d="M65.0221 24.9056C66.0648 25.0124 67.1076 25.0945 68.3064 25.193C72.067 24.8892 75.9425 24.8235 79.8016 24.684C80.8444 24.684 81.8871 24.4869 82.9299 24.3884C83.2547 24.3513 83.5609 24.2183 83.8096 24.0062C84.0583 23.7941 84.238 23.5126 84.3258 23.1978C84.3792 22.8734 84.338 22.5405 84.2069 22.239C84.0758 21.9375 83.8605 21.6803 83.5868 21.4981C83.1793 21.2899 82.7193 21.207 82.2648 21.26C78.9805 21.1779 75.6962 21.4325 72.4118 21.6131C70.1867 21.7445 67.9615 21.8594 65.7364 21.9744C65.146 21.9787 64.5635 22.1103 64.0286 22.3603C63.8126 22.4418 63.6252 22.5847 63.4895 22.7715C63.3538 22.9583 63.2757 23.1807 63.2649 23.4113C63.2542 23.6811 63.3275 23.9476 63.4745 24.174C63.6216 24.4005 63.8352 24.5758 64.086 24.6757C64.3845 24.7996 64.7002 24.8772 65.0221 24.9056Z" fill="black"/>
<path d="M65.6624 67.8487H65.9005C65.9784 67.4965 65.9515 67.1293 65.8231 66.7922C65.6947 66.4552 65.4704 66.1631 65.178 65.952C64.7083 65.4079 64.0462 65.0666 63.3305 64.9995H63.1581C60.4732 64.9995 57.7882 64.9174 55.1033 64.9092C53.7977 64.9092 52.484 64.9667 51.1785 65.016C50.6523 65.0144 50.1337 65.1413 49.6677 65.3855C49.4575 65.4824 49.2789 65.6366 49.1524 65.8304C49.0258 66.0241 48.9564 66.2497 48.9521 66.4811C48.9478 66.7125 49.0088 66.9404 49.1281 67.1387C49.2474 67.337 49.4202 67.4977 49.6266 67.6024C49.9638 67.7987 50.3338 67.9322 50.7187 67.9965C51.1711 68.0775 51.6304 68.1133 52.0899 68.1033C55.2264 68.1033 58.363 68.1033 61.4995 68.054C62.8461 68.0047 64.2009 67.9226 65.6624 67.8487Z" fill="black"/>
<path d="M21.4553 70.3361C18.992 70.6399 16.5288 70.4757 13.9998 70.5332C13.1788 70.5332 12.4316 70.5989 11.6515 70.6974C11.1324 70.7549 10.6239 70.8848 10.1407 71.0833C9.89464 71.1852 9.6885 71.3646 9.55364 71.5943C9.41879 71.824 9.36258 72.0914 9.39356 72.356C9.41211 72.5889 9.50776 72.809 9.66538 72.9815C9.823 73.154 10.0336 73.269 10.2639 73.3084C10.8991 73.457 11.5438 73.5612 12.1935 73.6205C15.3382 73.7847 18.4583 73.2592 21.5949 73.1196C21.8424 73.134 22.0902 73.0988 22.324 73.0162C22.5577 72.9336 22.7727 72.8052 22.9562 72.6385C23.1397 72.4718 23.2881 72.2702 23.3927 72.0455C23.4973 71.8207 23.5561 71.5774 23.5655 71.3296C23.3714 70.9555 23.0597 70.6556 22.6784 70.476C22.2971 70.2965 21.8673 70.2473 21.4553 70.3361Z" fill="black"/>
<path d="M49.4377 73.1528C49.7482 73.2592 50.071 73.3254 50.3983 73.3498C52.5583 73.4763 54.7256 73.3384 56.8521 72.9393C57.2426 72.8723 57.5925 72.6577 57.8292 72.3399C57.9607 72.216 58.0574 72.0597 58.1097 71.8868C58.1621 71.7138 58.1682 71.5302 58.1275 71.3541C58.0868 71.178 58.0007 71.0157 57.8778 70.8833C57.7549 70.7508 57.5994 70.6529 57.4268 70.5992C56.9871 70.4664 56.5313 70.3945 56.072 70.3857C55.2509 70.3857 54.5038 70.3857 53.7155 70.3857V70.4678C52.7959 70.4678 51.8763 70.4678 50.9649 70.4678C50.4422 70.5031 49.9262 70.6052 49.4295 70.7716C48.9204 70.9276 48.4524 71.215 48.4277 71.839C48.4349 72.1368 48.5367 72.4246 48.7182 72.6608C48.8998 72.8969 49.1517 73.0692 49.4377 73.1528Z" fill="black"/>
</svg>
