<svg width="18" height="18" viewBox="0 0 18 18" fill="none" xmlns="http://www.w3.org/2000/svg">
<g clip-path="url(#clip0_1_198)">
<path d="M18 9C18 13.9705 13.9705 18 9 18C4.03 18 0 13.9705 0 9C0 4.03 4.03 0 9 0C13.9705 0 18 4.03 18 9Z" fill="#FFCC4D"/>
<path d="M14.2285 8.8985C14.1985 8.831 13.479 7.25 12 7.25C10.5215 7.25 9.8015 8.831 9.7715 8.8985C9.7255 9.002 9.7555 9.123 9.844 9.194C9.9315 9.265 10.057 9.2675 10.149 9.201C10.155 9.1965 10.78 8.75 12 8.75C13.213 8.75 13.837 9.1905 13.851 9.2005C13.895 9.2335 13.948 9.25 14 9.25C14.055 9.25 14.1105 9.2315 14.156 9.1955C14.2445 9.1245 14.275 9.0025 14.2285 8.8985ZM8.2285 8.8985C8.1985 8.831 7.479 7.25 6 7.25C4.5215 7.25 3.8015 8.831 3.7715 8.8985C3.7255 9.002 3.7555 9.123 3.8435 9.194C3.9315 9.265 4.057 9.2675 4.1485 9.201C4.155 9.1965 4.7795 8.75 6 8.75C7.213 8.75 7.837 9.1905 7.851 9.2005C7.895 9.2335 7.948 9.25 8 9.25C8.055 9.25 8.1105 9.2315 8.156 9.1955C8.245 9.1245 8.2745 9.0025 8.2285 8.8985ZM9 11C7.1885 11 5.9865 10.789 4.5 10.5C4.1605 10.4345 3.5 10.5 3.5 11.5C3.5 13.5 5.7975 16 9 16C12.202 16 14.5 13.5 14.5 11.5C14.5 10.5 13.8395 10.434 13.5 10.5C12.0135 10.789 10.8115 11 9 11Z" fill="#664500"/>
<path d="M4.5 11.5C4.5 11.5 6 12 9 12C12 12 13.5 11.5 13.5 11.5C13.5 11.5 12.5 13.5 9 13.5C5.5 13.5 4.5 11.5 4.5 11.5Z" fill="white"/>
</g>
<defs>
<clipPath id="clip0_1_198">
<rect width="18" height="18" fill="white"/>
</clipPath>
</defs>
</svg>
